<svg width="140" height="140" viewBox="0 0 140 140" fill="none" xmlns="http://www.w3.org/2000/svg">
<path fill-rule="evenodd" clip-rule="evenodd" d="M34.4263 70.492L27.1307 57.8581L12.5394 57.8581L5.24379 70.492L12.5394 83.1259L27.1307 83.1259L34.4263 70.492ZM29.2525 86.8002L38.6699 70.492L29.2525 54.1837L10.4176 54.1837L1.00015 70.492L10.4176 86.8002L29.2525 86.8002Z" fill="#8A8C8E"/>
<path fill-rule="evenodd" clip-rule="evenodd" d="M67.8696 70.492L60.574 57.8581L45.9828 57.8581L38.6872 70.492L45.9828 83.1259L60.574 83.1259L67.8696 70.492ZM62.6958 86.8002L72.1133 70.492L62.6958 54.1837L43.861 54.1837L34.4435 70.492L43.861 86.8002L62.6958 86.8002Z" fill="#8A8C8E"/>
<path fill-rule="evenodd" clip-rule="evenodd" d="M101.313 70.492L94.0174 57.8581L79.4261 57.8581L72.1305 70.492L79.4261 83.1259L94.0174 83.1259L101.313 70.492ZM96.1392 86.8002L105.557 70.492L96.1392 54.1837L77.3043 54.1837L67.8869 70.492L77.3043 86.8002L96.1392 86.8002Z" fill="#8A8C8E"/>
<path fill-rule="evenodd" clip-rule="evenodd" d="M134.756 70.492L127.461 57.8581L112.869 57.8581L105.574 70.492L112.869 83.1259L127.461 83.1259L134.756 70.492ZM129.583 86.8002L139 70.492L129.583 54.1837L110.748 54.1837L101.33 70.492L110.748 86.8002L129.583 86.8002Z" fill="#8A8C8E"/>
</svg>
