<svg width="140" height="140" viewBox="0 0 140 140" fill="none" xmlns="http://www.w3.org/2000/svg">
<path d="M82.141 76.8841V63.863L70.8877 70.3735V83.3946L82.141 76.8841Z" fill="#212428" fill-opacity="0.5"/>
<path d="M82.141 90.7243V77.7032L70.8877 84.2138V97.2348L82.141 90.7243Z" fill="#212428" fill-opacity="0.5"/>
<path d="M82.141 104.564V91.5435L70.8877 98.054V111.075L82.141 104.564Z" fill="#212428" fill-opacity="0.5"/>
<path d="M82.141 118.275V105.254L70.8877 111.765V124.786L82.141 118.275Z" fill="#212428" fill-opacity="0.5"/>
<path d="M82.141 132.116V119.095L70.8877 125.605V138.626L82.141 132.116Z" fill="#212428" fill-opacity="0.5"/>
<path d="M94.0413 70.0286V57.0076L82.7881 63.5181V76.5391L94.0413 70.0286Z" fill="#212428" fill-opacity="0.5"/>
<path d="M94.0413 83.8258V70.7185L82.7881 77.2721V90.3794L94.0413 83.8258Z" fill="#212428" fill-opacity="0.5"/>
<path d="M94.0413 97.5797V84.5587L82.7881 91.0692V104.09L94.0413 97.5797Z" fill="#212428" fill-opacity="0.5"/>
<path d="M94.0413 111.42V98.3989L82.7881 104.909V117.93L94.0413 111.42Z" fill="#212428" fill-opacity="0.5"/>
<path d="M94.0413 125.26V112.239L82.7881 118.75V131.771L94.0413 125.26Z" fill="#212428" fill-opacity="0.5"/>
<path d="M106.071 63.0438V50.0228L94.688 56.5333V69.5543L106.071 63.0438Z" fill="#212428" fill-opacity="0.5"/>
<path d="M106.071 76.8841V63.863L94.688 70.3735V83.3946L106.071 76.8841Z" fill="#212428" fill-opacity="0.5"/>
<path d="M106.071 90.7243V77.7032L94.688 84.2138V97.2348L106.071 90.7243Z" fill="#212428" fill-opacity="0.5"/>
<path d="M106.071 104.521V91.4142L94.688 97.9678V111.075L106.071 104.521Z" fill="#212428" fill-opacity="0.5"/>
<path d="M106.071 118.275V105.254L94.688 111.765V124.786L106.071 118.275Z" fill="#212428" fill-opacity="0.5"/>
<path d="M117.971 56.1884V43.1674L106.717 49.6779V62.6989L117.971 56.1884Z" fill="#212428" fill-opacity="0.5"/>
<path d="M117.971 70.0286V57.0076L106.717 63.5181V76.5391L117.971 70.0286Z" fill="#212428" fill-opacity="0.5"/>
<path d="M117.971 83.8258V70.7185L106.717 77.2721V90.3794L117.971 83.8258Z" fill="#212428" fill-opacity="0.5"/>
<path d="M117.971 97.5797V84.5587L106.717 91.0692V104.09L117.971 97.5797Z" fill="#212428" fill-opacity="0.5"/>
<path d="M117.971 111.42V98.3989L106.717 104.909V117.93L117.971 111.42Z" fill="#212428" fill-opacity="0.5"/>
<path d="M130 49.333V36.312L118.618 42.8225V55.8435L130 49.333Z" fill="#212428" fill-opacity="0.5"/>
<path d="M130 63.0438V50.0228L118.618 56.5333V69.5543L130 63.0438Z" fill="#212428" fill-opacity="0.5"/>
<path d="M130 76.8841V63.863L118.618 70.3735V83.3946L130 76.8841Z" fill="#212428" fill-opacity="0.5"/>
<path d="M130 90.7243V77.7032L118.618 84.2138V97.2348L130 90.7243Z" fill="#212428" fill-opacity="0.5"/>
<path d="M130 104.521V91.4142L118.618 97.9678V111.075L130 104.521Z" fill="#212428" fill-opacity="0.5"/>
<path d="M81.8829 63.1516L70.565 56.6195L59.2471 63.1516L70.565 69.6836L81.8829 63.1516Z" fill="#212428" fill-opacity="0.5"/>
<path d="M93.7829 56.1668L82.5296 49.6348L71.2764 56.1668L82.5296 62.6989L93.7829 56.1668Z" fill="#212428" fill-opacity="0.5"/>
<path d="M105.812 49.2467L94.4937 42.7793L83.1758 49.2467L94.4937 55.7141L105.812 49.2467Z" fill="#212428" fill-opacity="0.5"/>
<path d="M117.841 42.1972L106.523 35.6652L95.2051 42.1972L106.523 48.7293L117.841 42.1972Z" fill="#212428" fill-opacity="0.5"/>
<path d="M129.741 35.2772L118.488 28.8098L107.235 35.2772L118.488 41.7446L129.741 35.2772Z" fill="#212428" fill-opacity="0.5"/>
<path d="M69.8536 56.1668L58.5357 49.6348L47.2178 56.1668L58.5357 62.6989L69.8536 56.1668Z" fill="#212428" fill-opacity="0.5"/>
<path d="M81.8829 49.2467L70.565 42.7793L59.2471 49.2467L70.565 55.7141L81.8829 49.2467Z" fill="#212428" fill-opacity="0.5"/>
<path d="M93.7829 42.2619L82.5296 35.7946L71.2764 42.2619L82.5296 48.7293L93.7829 42.2619Z" fill="#212428" fill-opacity="0.5"/>
<path d="M105.812 35.3419L94.4937 28.8098L83.1758 35.3419L94.4937 41.8739L105.812 35.3419Z" fill="#212428" fill-opacity="0.5"/>
<path d="M117.841 28.357L106.523 21.825L95.2051 28.357L106.523 34.8891L117.841 28.357Z" fill="#212428" fill-opacity="0.5"/>
<path d="M57.8239 49.3114L46.5059 42.7793L35.188 49.3114L46.5059 55.8434L57.8239 49.3114Z" fill="#212428" fill-opacity="0.5"/>
<path d="M69.8536 42.2619L58.5357 35.7946L47.2178 42.2619L58.5357 48.7293L69.8536 42.2619Z" fill="#212428" fill-opacity="0.5"/>
<path d="M81.8829 35.3419L70.565 28.8098L59.2471 35.3419L70.565 41.8739L81.8829 35.3419Z" fill="#212428" fill-opacity="0.5"/>
<path d="M93.7829 28.357L82.5296 21.825L71.2764 28.357L82.5296 34.8891L93.7829 28.357Z" fill="#212428" fill-opacity="0.5"/>
<path d="M105.812 21.3723L94.4937 14.8402L83.1758 21.3723L94.4937 27.9043L105.812 21.3723Z" fill="#212428" fill-opacity="0.5"/>
<path d="M45.924 42.3266L34.606 35.7946L23.2881 42.3266L34.606 48.8587L45.924 42.3266Z" fill="#212428" fill-opacity="0.5"/>
<path d="M57.8239 35.3419L46.5059 28.8098L35.188 35.3419L46.5059 41.8739L57.8239 35.3419Z" fill="#212428" fill-opacity="0.5"/>
<path d="M69.8536 28.357L58.5357 21.825L47.2178 28.357L58.5357 34.8891L69.8536 28.357Z" fill="#212428" fill-opacity="0.5"/>
<path d="M81.8829 21.437L70.565 14.9696L59.2471 21.437L70.565 27.9044L81.8829 21.437Z" fill="#212428" fill-opacity="0.5"/>
<path d="M93.7829 14.3875L82.5296 7.85547L71.2764 14.3875L82.5296 20.9196L93.7829 14.3875Z" fill="#212428" fill-opacity="0.5"/>
<path d="M33.8947 35.3419L22.5767 28.8098L11.2588 35.3419L22.5767 41.8739L33.8947 35.3419Z" fill="#212428" fill-opacity="0.5"/>
<path d="M45.924 28.357L34.606 21.825L23.2881 28.357L34.606 34.8891L45.924 28.357Z" fill="#212428" fill-opacity="0.5"/>
<path d="M57.8239 21.437L46.5059 14.9696L35.188 21.437L46.5059 27.9044L57.8239 21.437Z" fill="#212428" fill-opacity="0.5"/>
<path d="M69.8536 14.4521L58.5357 7.98474L47.2178 14.4521L58.5357 20.9195L69.8536 14.4521Z" fill="#212428" fill-opacity="0.5"/>
<path d="M81.8829 7.53207L70.565 1L59.2471 7.53207L70.565 14.0641L81.8829 7.53207Z" fill="#212428" fill-opacity="0.5"/>
<path d="M58.8584 76.8841L70.1117 83.3946V70.3735L58.8584 63.863V76.8841Z" fill="#212428" fill-opacity="0.5"/>
<path d="M58.8584 90.7243L70.1117 97.2348V84.2138L58.8584 77.7032V90.7243Z" fill="#212428" fill-opacity="0.5"/>
<path d="M58.8584 104.521L70.1117 111.075V97.9678L58.8584 91.4142V104.521Z" fill="#212428" fill-opacity="0.5"/>
<path d="M58.8584 118.275L70.1117 124.786V111.765L58.8584 105.254V118.275Z" fill="#212428" fill-opacity="0.5"/>
<path d="M58.8584 132.116L70.1117 138.626V125.605L58.8584 119.095V132.116Z" fill="#212428" fill-opacity="0.5"/>
<path d="M46.959 70.0286L58.2122 76.5391V63.5181L46.959 57.0076V70.0286Z" fill="#212428" fill-opacity="0.5"/>
<path d="M46.959 83.8258L58.2122 90.3794V77.2721L46.959 70.7185V83.8258Z" fill="#212428" fill-opacity="0.5"/>
<path d="M46.959 97.5797L58.2122 104.09V91.0692L46.959 84.5587V97.5797Z" fill="#212428" fill-opacity="0.5"/>
<path d="M46.959 111.42L58.2122 117.93V104.909L46.959 98.3989V111.42Z" fill="#212428" fill-opacity="0.5"/>
<path d="M46.959 125.26L58.2122 131.771V118.75L46.959 112.239V125.26Z" fill="#212428" fill-opacity="0.5"/>
<path d="M34.9297 63.0438L46.3123 69.5543V56.5333L34.9297 50.0228V63.0438Z" fill="#212428" fill-opacity="0.5"/>
<path d="M34.9297 76.8841L46.3123 83.3946V70.3735L34.9297 63.863V76.8841Z" fill="#212428" fill-opacity="0.5"/>
<path d="M34.9297 90.7243L46.3123 97.2348V84.2138L34.9297 77.7032V90.7243Z" fill="#212428" fill-opacity="0.5"/>
<path d="M34.9297 104.521L46.3123 111.075V97.9678L34.9297 91.4142V104.521Z" fill="#212428" fill-opacity="0.5"/>
<path d="M34.9297 118.275L46.3123 124.786V111.765L34.9297 105.254V118.275Z" fill="#212428" fill-opacity="0.5"/>
<path d="M23.0293 56.1884L34.2826 62.6989V49.6779L23.0293 43.1674V56.1884Z" fill="#212428" fill-opacity="0.5"/>
<path d="M23.0293 70.0286L34.2826 76.5391V63.5181L23.0293 57.0076V70.0286Z" fill="#212428" fill-opacity="0.5"/>
<path d="M23.0293 83.8258L34.2826 90.3794V77.2721L23.0293 70.7185V83.8258Z" fill="#212428" fill-opacity="0.5"/>
<path d="M23.0293 97.5797L34.2826 104.09V91.0692L23.0293 84.5587V97.5797Z" fill="#212428" fill-opacity="0.5"/>
<path d="M23.0293 111.42L34.2826 117.93V104.909L23.0293 98.3989V111.42Z" fill="#212428" fill-opacity="0.5"/>
<path d="M11 49.333L22.3826 55.8435V42.8225L11 36.312V49.333Z" fill="#212428" fill-opacity="0.5"/>
<path d="M11 63.0438L22.3826 69.5543V56.5333L11 50.0228V63.0438Z" fill="#212428" fill-opacity="0.5"/>
<path d="M11 76.8841L22.3826 83.3946V70.3735L11 63.863V76.8841Z" fill="#212428" fill-opacity="0.5"/>
<path d="M11 90.7243L22.3826 97.2348V84.2138L11 77.7032V90.7243Z" fill="#212428" fill-opacity="0.5"/>
<path d="M11 104.521L22.3826 111.075V97.9678L11 91.4142V104.521Z" fill="#212428" fill-opacity="0.5"/>
</svg>
