<svg width="140" height="140" viewBox="0 0 140 140" fill="none" xmlns="http://www.w3.org/2000/svg">
<path d="M22.9493 32.6785L35.7088 10.5784L61.2278 10.5784L73.9873 32.6785L61.2278 54.7786L35.7088 54.7786L22.9493 32.6785Z" stroke="#8A8C8E" stroke-width="0.637975"/>
<path d="M26.1392 32.6785L37.3037 13.3409L59.6328 13.3409L70.7974 32.6785L59.6328 52.016L37.3037 52.016L26.1392 32.6785Z" stroke="#8A8C8E" stroke-width="0.637975"/>
<path d="M29.3291 32.6786L38.8987 16.1036L58.038 16.1036L67.6076 32.6786L58.038 49.2537L38.8987 49.2537L29.3291 32.6786Z" stroke="#8A8C8E" stroke-width="0.637975"/>
<path d="M32.5189 32.6786L40.4936 18.866L56.443 18.866L64.4177 32.6786L56.443 46.4911L40.4936 46.4911L32.5189 32.6786Z" stroke="#8A8C8E" stroke-width="0.637975"/>
<path d="M35.7089 32.6785L42.0886 21.6284L54.8481 21.6284L61.2279 32.6785L54.8481 43.7285L42.0886 43.7285L35.7089 32.6785Z" stroke="#8A8C8E" stroke-width="0.637975"/>
<path d="M66.0127 57.5596L78.7722 35.4595L104.291 35.4595L117.051 57.5596L104.291 79.6597L78.7722 79.6597L66.0127 57.5596Z" stroke="#8A8C8E" stroke-width="0.637975"/>
<path d="M69.2025 57.5596L80.3671 38.222L102.696 38.222L113.861 57.5596L102.696 76.8971L80.3671 76.8971L69.2025 57.5596Z" stroke="#8A8C8E" stroke-width="0.637975"/>
<path d="M72.3925 57.5595L81.9621 40.9844L101.101 40.9844L110.671 57.5595L101.101 74.1346L81.9621 74.1346L72.3925 57.5595Z" stroke="#8A8C8E" stroke-width="0.637975"/>
<path d="M75.5823 57.5594L83.557 43.7469L99.5063 43.7469L107.481 57.5594L99.5063 71.372L83.557 71.372L75.5823 57.5594Z" stroke="#8A8C8E" stroke-width="0.637975"/>
<path d="M78.7722 57.5596L85.152 46.5096L97.9115 46.5096L104.291 57.5596L97.9115 68.6096L85.152 68.6096L78.7722 57.5596Z" stroke="#8A8C8E" stroke-width="0.637975"/>
<path d="M22.9493 82.4407L35.7088 60.3406L61.2278 60.3406L73.9873 82.4407L61.2278 104.541L35.7088 104.541L22.9493 82.4407Z" stroke="#8A8C8E" stroke-width="0.637975"/>
<path d="M26.1392 82.4407L37.3037 63.1031L59.6328 63.1031L70.7974 82.4407L59.6328 101.778L37.3037 101.778L26.1392 82.4407Z" stroke="#8A8C8E" stroke-width="0.637975"/>
<path d="M29.3291 82.4406L38.8987 65.8655L58.038 65.8655L67.6076 82.4406L58.038 99.0157L38.8987 99.0157L29.3291 82.4406Z" stroke="#8A8C8E" stroke-width="0.637975"/>
<path d="M32.5189 82.4405L40.4936 68.628L56.443 68.628L64.4177 82.4405L56.443 96.2531L40.4936 96.2531L32.5189 82.4405Z" stroke="#8A8C8E" stroke-width="0.637975"/>
<path d="M35.7089 82.4407L42.0886 71.3907L54.8481 71.3907L61.2279 82.4407L54.8481 93.4907L42.0886 93.4907L35.7089 82.4407Z" stroke="#8A8C8E" stroke-width="0.637975"/>
<path d="M66.0127 107.322L78.7722 85.2215L104.291 85.2215L117.051 107.322L104.291 129.422L78.7722 129.422L66.0127 107.322Z" stroke="#8A8C8E" stroke-width="0.637975"/>
<path d="M69.2025 107.322L80.3671 87.9839L102.696 87.9839L113.861 107.322L102.696 126.659L80.3671 126.659L69.2025 107.322Z" stroke="#8A8C8E" stroke-width="0.637975"/>
<path d="M72.3925 107.321L81.9621 90.7464L101.101 90.7464L110.671 107.321L101.101 123.897L81.9621 123.897L72.3925 107.321Z" stroke="#8A8C8E" stroke-width="0.637975"/>
<path d="M75.5823 107.321L83.557 93.5088L99.5063 93.5088L107.481 107.321L99.5063 121.134L83.557 121.134L75.5823 107.321Z" stroke="#8A8C8E" stroke-width="0.637975"/>
<path d="M78.7722 107.322L85.152 96.2715L97.9115 96.2715L104.291 107.322L97.9115 118.372L85.152 118.372L78.7722 107.322Z" stroke="#8A8C8E" stroke-width="0.637975"/>
<path fill-rule="evenodd" clip-rule="evenodd" d="M63.2292 57.541L77.4208 32.9605H105.741L119.932 57.5409L105.741 82.1213H77.4207L63.2292 57.541ZM20.1667 82.4219L34.3582 57.8415H62.666L76.8629 82.4311L62.6766 107.002H34.3582L20.1667 82.4219ZM77.4109 32.3225H105.751L111.45 22.4525L111.823 23.0996L106.304 32.6599L120.474 57.2035H131.513L131.903 57.8783H120.474L106.304 82.4219L119.017 104.441L118.643 105.089L105.751 82.7592H77.4101L63.2398 107.303L76.1536 129.67H75.407L62.6881 107.64H34.3476L28.5891 117.614L28.2154 116.967L33.795 107.303L19.6248 82.7593H8.4655L8.07591 82.0845H19.6248L33.795 57.5409L21.0435 35.4546L21.4168 34.808L34.3469 57.2035H62.6874L76.8577 32.6599L63.9653 10.3296L64.7132 10.3296L77.4109 32.3225ZM67.1664 10.3296L78.6374 30.198H104.525L110.223 20.3279L109.855 19.6899L104.156 29.56H79.0058L67.9031 10.3296L67.1664 10.3296ZM108.628 17.5654L102.93 27.4355H80.2324L70.3563 10.3296L71.0929 10.3296L80.6007 26.7975H102.561L108.26 16.9274L108.628 17.5654ZM73.5462 10.3296L81.8273 24.673H101.335L107.033 14.8029L106.665 14.1649L100.967 24.035H82.1957L74.2828 10.3296L73.5462 10.3296ZM105.438 12.0404L99.74 21.9105H83.4223L76.736 10.3296L77.4727 10.3296L83.7906 21.2725H99.3716L105.07 11.4024L105.438 12.0404ZM79.8929 10.3296L84.892 18.9884L84.9841 19.1479H85.1683H97.9278H98.1119L98.204 18.9884L103.203 10.3296L102.466 10.3296L97.7436 18.5099H85.3524L80.6295 10.3296L79.8929 10.3296ZM100.013 10.3296L96.6091 16.2259L96.517 16.3854H96.3328H86.7632H86.579L86.4869 16.2259L83.0827 10.3296L83.8194 10.3296L86.9473 15.7474H96.1486L99.2766 10.3296L100.013 10.3296ZM86.2726 10.3296L88.0818 13.4634L88.1739 13.6229H88.3581H94.7378H94.922L95.0141 13.4634L96.8234 10.3296L96.0867 10.3296L94.5537 12.9849H88.5423L87.0092 10.3296L86.2726 10.3296ZM93.6337 10.3296L89.4628 10.3296L89.6771 10.7007L89.7692 10.8602H89.9534L93.1432 10.8602H93.3274L93.4195 10.7007L93.6337 10.3296ZM19.8169 37.5791L31.3418 57.5409L18.3982 79.96H6.8493L6.48097 79.322H18.0298L30.6052 57.5409L19.4486 38.2171L19.8169 37.5791ZM5.25439 77.1975H16.8032L28.152 57.541L18.222 40.3417L17.8536 40.9796L27.4153 57.541L16.4349 76.5595H4.88605L5.25439 77.1975ZM16.627 43.1042L24.9621 57.5409L15.2083 74.435H3.65944L3.29111 73.797H14.84L24.2254 57.5409L16.2587 43.7421L16.627 43.1042ZM2.0645 71.6725H13.6134L21.7722 57.5409L15.0321 45.8667L14.6638 46.5047L21.0356 57.5409L13.245 71.0345H1.69617L2.0645 71.6725ZM1.7281 68.9099H11.8011H11.9853L12.0774 68.7504L18.4571 57.7003L18.5492 57.5408L18.4571 57.3813L13.4206 48.6578L13.0523 49.2958L17.8125 57.5408L11.617 68.2719H2.09643L1.7281 68.9099ZM3.32303 66.1474H10.2062H10.3903L10.4824 65.9879L15.2672 57.7003L15.3593 57.5409L15.2672 57.3814L11.8257 51.4204L11.4573 52.0583L14.6227 57.5409L10.022 65.5094H3.69136L3.32303 66.1474ZM4.91795 63.3849H8.6113H8.79547L8.88756 63.2254L12.0774 57.7004L12.1695 57.5409L12.0774 57.3814L10.2308 54.1828L9.86242 54.8208L11.4328 57.5409L8.42714 62.7469H5.28629L4.91795 63.3849ZM6.51298 60.6222H7.01669H7.20085L7.29294 60.4627L8.88787 57.7002L8.97996 57.5407L8.88787 57.3812L8.63602 56.945L6.51298 60.6222ZM26.9888 114.843L31.3418 107.303L18.3982 84.8839H9.6921L10.0604 85.5218H18.0298L30.6052 107.303L26.6205 114.205L26.9888 114.843ZM25.3939 112.08L28.152 107.303L16.8032 87.6464H11.2871L11.6554 88.2844H16.4349L27.4153 107.303L25.0255 111.442L25.3939 112.08ZM23.7989 109.318L24.9621 107.303L15.2083 90.4089H12.882L13.2503 91.0469H14.84L24.2254 107.303L23.4306 108.68L23.7989 109.318ZM72.9538 129.67L61.4615 109.765H35.5742L29.8157 119.739L30.184 120.377L35.9425 110.403H61.0931L72.2171 129.67H72.9538ZM69.7639 129.67L59.8665 112.527H37.1691L31.4106 122.501L31.7789 123.139L37.5374 113.165H59.4982L69.0272 129.67H69.7639ZM66.574 129.67L58.2716 115.29L38.764 115.29L33.0055 125.264L33.3739 125.902L39.1324 115.928L57.9033 115.928L65.8373 129.67H66.574ZM63.3841 129.67L56.6767 118.052H40.359L34.6005 128.026L34.9688 128.664L40.7273 118.69H56.3083L62.6475 129.67H63.3841ZM60.1611 129.67L55.1407 120.974L55.0486 120.815H54.8644H42.1049H41.9208L41.8287 120.974L36.8083 129.67H37.5449L42.2891 121.453H54.6803L59.4245 129.67H60.1611ZM56.9713 129.67L53.5457 123.737L53.4537 123.577H53.2695H43.6999H43.5157L43.4236 123.737L39.998 129.67H40.7347L43.884 124.215H53.0853L56.2347 129.67H56.9713ZM53.7814 129.67L51.9508 126.499L51.8587 126.34H51.6745H45.2948H45.1106L45.0185 126.499L43.1879 129.67H43.9246L45.479 126.978H51.4904L53.0448 129.67H53.7814ZM50.5916 129.67L50.3559 129.262L50.2638 129.102H50.0797H46.8898H46.7056L46.6135 129.262L46.3778 129.67H50.5916ZM133.13 60.0028H121.701L108.757 82.4219L120.243 102.317L120.612 101.679L109.494 82.4219L122.069 60.6408H133.498L133.13 60.0028ZM134.725 62.7654H123.296L111.947 82.422L121.838 99.5541L122.207 98.9161L112.684 82.422L123.664 63.4034H135.093L134.725 62.7654ZM136.319 65.5279L124.891 65.5279L115.137 82.422L123.433 96.7916L123.801 96.1536L115.873 82.422L125.259 66.1659L136.688 66.1659L136.319 65.5279ZM137.914 68.2904H126.486L118.327 82.422L125.028 94.0291L125.396 93.3911L119.063 82.422L126.854 68.9284H138.283L137.914 68.2904ZM138.293 71.0528H128.231H128.047L127.955 71.2123L121.575 82.2624L121.483 82.4219L121.575 82.5814L126.606 91.2952L126.975 90.6573L122.22 82.4219L128.416 71.6908H137.925L138.293 71.0528ZM136.698 73.8154H129.826H129.642L129.55 73.9749L124.765 82.2624L124.673 82.4219L124.765 82.5814L128.201 88.5327L128.57 87.8947L125.41 82.4219L130.011 74.4534H136.33L136.698 73.8154ZM135.103 76.5779H131.421H131.237L131.145 76.7374L127.955 82.2624L127.863 82.4219L127.955 82.5814L129.796 85.7702L130.165 85.1322L128.6 82.4219L131.606 77.2159H134.735L135.103 76.5779ZM133.509 79.3403H133.017H132.832L132.74 79.4998L131.145 82.2623L131.053 82.4218L131.145 82.5813L131.391 83.0073L133.509 79.3403ZM113.05 25.2242L108.757 32.6599L121.701 55.079H130.287L129.918 54.441H122.069L109.494 32.6599L113.418 25.8621L113.05 25.2242ZM114.645 27.9867L111.947 32.6599L123.296 52.3165H128.692L128.324 51.6785H123.664L112.684 32.6599L115.013 28.6247L114.645 27.9867ZM116.24 30.7492L115.137 32.6599L124.891 49.554H127.097L126.729 48.916H125.259L115.873 32.6599L116.608 31.3872L116.24 30.7492Z" fill="#8A8C8E"/>
</svg>
