<svg width="140" height="140" viewBox="0 0 140 140" fill="none" xmlns="http://www.w3.org/2000/svg">
<path fill-rule="evenodd" clip-rule="evenodd" d="M70 130C103.137 130 130 103.137 130 70C130 36.8629 103.137 10 70 10C36.8629 10 10 36.8629 10 70C10 103.137 36.8629 130 70 130ZM70 85C78.2843 85 85 78.2843 85 70C85 61.7157 78.2843 55 70 55C61.7157 55 55 61.7157 55 70C55 78.2843 61.7157 85 70 85Z" fill="#8A8C8E"/>
<circle cx="70" cy="70" r="25.5" stroke="white" stroke-width="1.5"/>
<circle cx="70" cy="70" r="46.125" stroke="white" stroke-width="1.5"/>
<path d="M70 34C74.7276 34 79.4089 34.9312 83.7766 36.7403C88.1443 38.5495 92.1129 41.2012 95.4558 44.5442C98.7988 47.8871 101.45 51.8557 103.26 56.2234C105.069 60.5911 106 65.2724 106 70C106 74.7276 105.069 79.4089 103.26 83.7766C101.45 88.1443 98.7988 92.1129 95.4558 95.4558C92.1129 98.7988 88.1443 101.45 83.7766 103.26C79.4089 105.069 74.7276 106 70 106" stroke="white" stroke-width="1.5"/>
<path d="M70 33.25V44.875" stroke="white" stroke-width="1.5"/>
<path d="M70 116.875V105.25" stroke="white" stroke-width="1.5"/>
</svg>
