<svg width="140" height="140" viewBox="0 0 140 140" fill="none" xmlns="http://www.w3.org/2000/svg">
<path d="M42.2349 38.1961C42.0481 38.3786 42.1804 38.6907 42.4445 38.6907H67.5473C67.8114 38.6907 67.9436 38.3786 67.7569 38.1961L55.2055 25.9272C55.0897 25.814 54.902 25.814 54.7863 25.9272L42.2349 38.1961Z" fill="black" fill-opacity="0.2"/>
<path d="M67.7573 10.6129C67.944 10.4304 67.8118 10.1183 67.5477 10.1183L42.4449 10.1183C42.1808 10.1183 42.0486 10.4304 42.2353 10.6129L54.7867 22.8819C54.9025 22.995 55.0901 22.995 55.2059 22.8819L67.7573 10.6129Z" fill="black" fill-opacity="0.2"/>
<path d="M68.7884 37.1655C68.9709 37.3523 69.283 37.22 69.283 36.9559L69.283 11.8531C69.283 11.589 68.9709 11.4567 68.7884 11.6435L56.5194 24.1949C56.4063 24.3107 56.4063 24.4983 56.5194 24.6141L68.7884 37.1655Z" fill="black" fill-opacity="0.2"/>
<path d="M41.2048 11.6435C41.0223 11.4568 40.7102 11.589 40.7102 11.8531L40.7102 36.9559C40.7102 37.22 41.0223 37.3523 41.2048 37.1655L53.4737 24.6141C53.5869 24.4984 53.5869 24.3107 53.4737 24.1949L41.2048 11.6435Z" fill="black" fill-opacity="0.2"/>
<path d="M42.2349 68.7876C42.0481 68.9701 42.1804 69.2822 42.4445 69.2822H67.5473C67.8114 69.2822 67.9436 68.9701 67.7569 68.7876L55.2055 56.5186C55.0897 56.4055 54.902 56.4055 54.7863 56.5186L42.2349 68.7876Z" fill="black" fill-opacity="0.2"/>
<path d="M67.7573 41.2044C67.944 41.0219 67.8118 40.7098 67.5477 40.7098L42.4449 40.7098C42.1808 40.7098 42.0486 41.0219 42.2353 41.2044L54.7867 53.4734C54.9025 53.5865 55.0901 53.5865 55.2059 53.4734L67.7573 41.2044Z" fill="black" fill-opacity="0.2"/>
<path d="M68.7884 67.757C68.9709 67.9437 69.283 67.8115 69.283 67.5474L69.283 42.4446C69.283 42.1805 68.9709 42.0482 68.7884 42.235L56.5194 54.7864C56.4063 54.9022 56.4063 55.0898 56.5194 55.2056L68.7884 67.757Z" fill="black" fill-opacity="0.2"/>
<path d="M41.2048 42.235C41.0223 42.0483 40.7102 42.1805 40.7102 42.4446L40.7102 67.5474C40.7102 67.8115 41.0223 67.9438 41.2048 67.757L53.4737 55.2056C53.5869 55.0899 53.5869 54.9022 53.4737 54.7864L41.2048 42.235Z" fill="black" fill-opacity="0.2"/>
<path d="M72.6431 38.1961C72.4563 38.3786 72.5886 38.6907 72.8527 38.6907H97.9555C98.2196 38.6907 98.3518 38.3786 98.1651 38.1961L85.6137 25.9272C85.4979 25.814 85.3103 25.814 85.1945 25.9272L72.6431 38.1961Z" fill="black" fill-opacity="0.2"/>
<path d="M98.1655 10.6129C98.3523 10.4304 98.22 10.1183 97.9559 10.1183L72.8531 10.1183C72.589 10.1183 72.4568 10.4304 72.6435 10.6129L85.1949 22.8819C85.3107 22.995 85.4983 22.995 85.6141 22.8819L98.1655 10.6129Z" fill="black" fill-opacity="0.2"/>
<path d="M99.1966 37.1655C99.3791 37.3523 99.6912 37.22 99.6912 36.9559L99.6912 11.8531C99.6912 11.589 99.3791 11.4567 99.1966 11.6435L86.9276 24.1949C86.8145 24.3107 86.8145 24.4983 86.9276 24.6141L99.1966 37.1655Z" fill="black" fill-opacity="0.2"/>
<path d="M71.613 11.6435C71.4305 11.4568 71.1184 11.589 71.1184 11.8531L71.1184 36.9559C71.1184 37.22 71.4305 37.3523 71.613 37.1655L83.8819 24.6141C83.9951 24.4984 83.9951 24.3107 83.8819 24.1949L71.613 11.6435Z" fill="black" fill-opacity="0.2"/>
<path d="M72.6431 68.7876C72.4563 68.9701 72.5886 69.2822 72.8527 69.2822H97.9555C98.2196 69.2822 98.3518 68.9701 98.1651 68.7876L85.6137 56.5186C85.4979 56.4055 85.3103 56.4055 85.1945 56.5186L72.6431 68.7876Z" fill="black" fill-opacity="0.2"/>
<path d="M98.1655 41.2044C98.3523 41.0219 98.22 40.7098 97.9559 40.7098L72.8531 40.7098C72.589 40.7098 72.4568 41.0219 72.6435 41.2044L85.1949 53.4734C85.3107 53.5865 85.4983 53.5865 85.6141 53.4734L98.1655 41.2044Z" fill="black" fill-opacity="0.2"/>
<path d="M99.1966 67.757C99.3791 67.9437 99.6912 67.8115 99.6912 67.5474L99.6912 42.4446C99.6912 42.1805 99.3791 42.0482 99.1966 42.235L86.9276 54.7864C86.8145 54.9022 86.8145 55.0898 86.9276 55.2056L99.1966 67.757Z" fill="black" fill-opacity="0.2"/>
<path d="M71.613 42.235C71.4305 42.0483 71.1184 42.1805 71.1184 42.4446L71.1184 67.5474C71.1184 67.8115 71.4305 67.9438 71.613 67.757L83.8819 55.2056C83.9951 55.0899 83.9951 54.9022 83.8819 54.7864L71.613 42.235Z" fill="black" fill-opacity="0.2"/>
<path d="M42.2349 99.1956C42.0481 99.3781 42.1804 99.6902 42.4445 99.6902H67.5473C67.8114 99.6902 67.9436 99.3781 67.7569 99.1956L55.2055 86.9267C55.0897 86.8135 54.902 86.8135 54.7863 86.9267L42.2349 99.1956Z" fill="black" fill-opacity="0.2"/>
<path d="M67.7573 71.6124C67.944 71.4299 67.8118 71.1178 67.5477 71.1178L42.4449 71.1178C42.1808 71.1178 42.0486 71.4299 42.2353 71.6124L54.7867 83.8813C54.9025 83.9945 55.0901 83.9945 55.2059 83.8813L67.7573 71.6124Z" fill="black" fill-opacity="0.2"/>
<path d="M68.7884 98.165C68.9709 98.3517 69.283 98.2194 69.283 97.9554L69.283 72.8525C69.283 72.5885 68.9709 72.4562 68.7884 72.6429L56.5194 85.1944C56.4063 85.3101 56.4063 85.4978 56.5194 85.6136L68.7884 98.165Z" fill="black" fill-opacity="0.2"/>
<path d="M41.2048 72.643C41.0223 72.4562 40.7102 72.5885 40.7102 72.8526L40.7102 97.9554C40.7102 98.2195 41.0223 98.3517 41.2048 98.165L53.4737 85.6136C53.5869 85.4978 53.5869 85.3101 53.4737 85.1944L41.2048 72.643Z" fill="black" fill-opacity="0.2"/>
<path d="M42.2349 129.787C42.0481 129.97 42.1804 130.282 42.4445 130.282H67.5473C67.8114 130.282 67.9436 129.97 67.7569 129.787L55.2055 117.518C55.0897 117.405 54.902 117.405 54.7863 117.518L42.2349 129.787Z" fill="black" fill-opacity="0.2"/>
<path d="M67.7573 102.204C67.944 102.021 67.8118 101.709 67.5477 101.709L42.4449 101.709C42.1808 101.709 42.0486 102.021 42.2353 102.204L54.7867 114.473C54.9025 114.586 55.0901 114.586 55.2059 114.473L67.7573 102.204Z" fill="black" fill-opacity="0.2"/>
<path d="M68.7884 128.756C68.9709 128.943 69.283 128.811 69.283 128.547L69.283 103.444C69.283 103.18 68.9709 103.048 68.7884 103.234L56.5194 115.786C56.4063 115.902 56.4063 116.089 56.5194 116.205L68.7884 128.756Z" fill="black" fill-opacity="0.2"/>
<path d="M41.2048 103.234C41.0223 103.048 40.7102 103.18 40.7102 103.444L40.7102 128.547C40.7102 128.811 41.0223 128.943 41.2048 128.756L53.4737 116.205C53.5869 116.089 53.5869 115.902 53.4737 115.786L41.2048 103.234Z" fill="black" fill-opacity="0.2"/>
<path d="M72.6431 99.1956C72.4563 99.3781 72.5886 99.6902 72.8527 99.6902H97.9555C98.2196 99.6902 98.3518 99.3781 98.1651 99.1956L85.6137 86.9267C85.4979 86.8135 85.3103 86.8135 85.1945 86.9267L72.6431 99.1956Z" fill="black" fill-opacity="0.2"/>
<path d="M98.1655 71.6124C98.3523 71.4299 98.22 71.1178 97.9559 71.1178L72.8531 71.1178C72.589 71.1178 72.4568 71.4299 72.6435 71.6124L85.1949 83.8813C85.3107 83.9945 85.4983 83.9945 85.6141 83.8813L98.1655 71.6124Z" fill="black" fill-opacity="0.2"/>
<path d="M99.1966 98.165C99.3791 98.3517 99.6912 98.2194 99.6912 97.9554L99.6912 72.8525C99.6912 72.5885 99.3791 72.4562 99.1966 72.6429L86.9276 85.1944C86.8145 85.3101 86.8145 85.4978 86.9276 85.6136L99.1966 98.165Z" fill="black" fill-opacity="0.2"/>
<path d="M71.613 72.643C71.4305 72.4562 71.1184 72.5885 71.1184 72.8526L71.1184 97.9554C71.1184 98.2195 71.4305 98.3517 71.613 98.165L83.8819 85.6136C83.9951 85.4978 83.9951 85.3101 83.8819 85.1944L71.613 72.643Z" fill="black" fill-opacity="0.2"/>
<path d="M72.6431 129.787C72.4563 129.97 72.5886 130.282 72.8527 130.282H97.9555C98.2196 130.282 98.3518 129.97 98.1651 129.787L85.6137 117.518C85.4979 117.405 85.3103 117.405 85.1945 117.518L72.6431 129.787Z" fill="black" fill-opacity="0.2"/>
<path d="M98.1655 102.204C98.3523 102.021 98.22 101.709 97.9559 101.709L72.8531 101.709C72.589 101.709 72.4568 102.021 72.6435 102.204L85.1949 114.473C85.3107 114.586 85.4983 114.586 85.6141 114.473L98.1655 102.204Z" fill="black" fill-opacity="0.2"/>
<path d="M99.1966 128.756C99.3791 128.943 99.6912 128.811 99.6912 128.547L99.6912 103.444C99.6912 103.18 99.3791 103.048 99.1966 103.234L86.9276 115.786C86.8145 115.902 86.8145 116.089 86.9276 116.205L99.1966 128.756Z" fill="black" fill-opacity="0.2"/>
<path d="M71.613 103.234C71.4305 103.048 71.1184 103.18 71.1184 103.444L71.1184 128.547C71.1184 128.811 71.4305 128.943 71.613 128.756L83.8819 116.205C83.9951 116.089 83.9951 115.902 83.8819 115.786L71.613 103.234Z" fill="black" fill-opacity="0.2"/>
<rect x="34.8977" y="4.30591" width="70.6052" height="131.788" rx="5.81238" stroke="black" stroke-opacity="0.4" stroke-width="0.61183"/>
</svg>
