<svg width="140" height="140" viewBox="0 0 140 140" fill="none" xmlns="http://www.w3.org/2000/svg">
<path d="M24.4431 33.8634L36.7975 12.4649L61.5064 12.4649L73.8608 33.8634L61.5064 55.2619L36.7975 55.2619L24.4431 33.8634Z" stroke="#8A8C8E" stroke-width="0.617721"/>
<path d="M27.5317 33.8634L38.3419 15.1397L59.9621 15.1397L70.7722 33.8634L59.9621 52.5871L38.3419 52.5871L27.5317 33.8634Z" stroke="#8A8C8E" stroke-width="0.617721"/>
<path d="M30.6204 33.8634L39.8862 17.8145L58.4178 17.8145L67.6837 33.8634L58.4178 49.9123L39.8862 49.9123L30.6204 33.8634Z" stroke="#8A8C8E" stroke-width="0.617721"/>
<path d="M33.709 33.8634L41.4305 20.4893L56.8735 20.4893L64.5951 33.8634L56.8735 47.2374L41.4305 47.2374L33.709 33.8634Z" stroke="#8A8C8E" stroke-width="0.617721"/>
<path d="M36.7975 33.8633L42.9747 23.1641L55.3291 23.1641L61.5063 33.8633L55.3291 44.5626L42.9747 44.5626L36.7975 33.8633Z" stroke="#8A8C8E" stroke-width="0.617721"/>
<path d="M66.1393 57.9545L78.4937 36.556L103.203 36.556L115.557 57.9545L103.203 79.353L78.4937 79.353L66.1393 57.9545Z" stroke="#8A8C8E" stroke-width="0.617721"/>
<path d="M69.2279 57.9545L80.038 39.2308L101.658 39.2308L112.468 57.9545L101.658 76.6781L80.038 76.6781L69.2279 57.9545Z" stroke="#8A8C8E" stroke-width="0.617721"/>
<path d="M72.3165 57.9544L81.5824 41.9056L100.114 41.9056L109.38 57.9544L100.114 74.0033L81.5824 74.0033L72.3165 57.9544Z" stroke="#8A8C8E" stroke-width="0.617721"/>
<path d="M75.4052 57.9544L83.1267 44.5804L98.5697 44.5804L106.291 57.9544L98.5697 71.3285L83.1267 71.3285L75.4052 57.9544Z" stroke="#8A8C8E" stroke-width="0.617721"/>
<path d="M78.4937 57.9544L84.6709 47.2552L97.0253 47.2552L103.203 57.9544L97.0253 68.6537L84.6709 68.6537L78.4937 57.9544Z" stroke="#8A8C8E" stroke-width="0.617721"/>
<path d="M24.4431 82.0455L36.7975 60.647L61.5064 60.647L73.8608 82.0455L61.5064 103.444L36.7975 103.444L24.4431 82.0455Z" stroke="#8A8C8E" stroke-width="0.617721"/>
<path d="M27.5317 82.0455L38.3419 63.3218L59.9621 63.3218L70.7722 82.0455L59.9621 100.769L38.3419 100.769L27.5317 82.0455Z" stroke="#8A8C8E" stroke-width="0.617721"/>
<path d="M30.6204 82.0455L39.8862 65.9966L58.4178 65.9966L67.6837 82.0455L58.4178 98.0944L39.8862 98.0944L30.6204 82.0455Z" stroke="#8A8C8E" stroke-width="0.617721"/>
<path d="M33.709 82.0455L41.4305 68.6714L56.8735 68.6714L64.5951 82.0455L56.8735 95.4196L41.4305 95.4196L33.709 82.0455Z" stroke="#8A8C8E" stroke-width="0.617721"/>
<path d="M36.7975 82.0455L42.9747 71.3462L55.3291 71.3462L61.5063 82.0455L55.3291 92.7447L42.9747 92.7447L36.7975 82.0455Z" stroke="#8A8C8E" stroke-width="0.617721"/>
<path d="M66.1393 106.137L78.4937 84.7383L103.203 84.7383L115.557 106.137L103.203 127.535L78.4937 127.535L66.1393 106.137Z" stroke="#8A8C8E" stroke-width="0.617721"/>
<path d="M69.2279 106.137L80.038 87.4131L101.658 87.4131L112.468 106.137L101.658 124.861L80.038 124.861L69.2279 106.137Z" stroke="#8A8C8E" stroke-width="0.617721"/>
<path d="M72.3165 106.137L81.5824 90.0879L100.114 90.0879L109.38 106.137L100.114 122.186L81.5824 122.186L72.3165 106.137Z" stroke="#8A8C8E" stroke-width="0.617721"/>
<path d="M75.4052 106.137L83.1267 92.7627L98.5697 92.7627L106.291 106.137L98.5697 119.511L83.1267 119.511L75.4052 106.137Z" stroke="#8A8C8E" stroke-width="0.617721"/>
<path d="M78.4937 106.137L84.6709 95.4375L97.0253 95.4375L103.203 106.137L97.0253 116.836L84.6709 116.836L78.4937 106.137Z" stroke="#8A8C8E" stroke-width="0.617721"/>
<path fill-rule="evenodd" clip-rule="evenodd" d="M63.3654 58.073L77.1851 34.1366H104.606L118.347 57.9367L104.606 81.7365H76.9966H76.8183L76.7291 81.891L62.9091 105.828H35.4898L21.7488 82.0278L35.4899 58.2275H63.0979H63.2762L63.3654 58.073ZM77.1757 33.5188H104.616L110.134 23.9622L110.496 24.5889L105.151 33.8455L118.872 57.61H129.561L129.938 58.2633H118.872L105.151 82.0278L117.461 103.348L117.099 103.975L104.616 82.3543H77.1749L63.4545 106.119L75.9584 127.776H75.2354L62.9203 106.446H35.4795L29.9037 116.103L29.5419 115.476L34.9445 106.119L21.2241 82.3545H10.4189L10.0417 81.7011H21.2241L34.9445 57.9367L22.5977 36.5514L22.9592 35.9253L35.4788 57.6097H62.9196L76.64 33.8453L64.157 12.2241L64.8812 12.2241L77.1757 33.5188ZM67.2565 12.2241L78.3633 31.4617H103.429L108.946 21.9051L108.59 21.2874L103.072 30.844H78.72L67.9698 12.2241L67.2565 12.2241ZM107.402 19.2304L101.885 28.787H79.9076L70.3451 12.2241L71.0584 12.2241L80.2643 28.1692H101.528L107.045 18.6126L107.402 19.2304ZM73.4337 12.2241L81.4519 26.1121H100.34L105.858 16.5555L105.501 15.9378L99.9836 25.4944H81.8086L74.147 12.2241L73.4337 12.2241ZM104.313 13.8807L98.7959 23.4373H82.9962L76.5223 12.2241L77.2356 12.2241L83.3529 22.8196H98.4393L103.957 13.263L104.313 13.8807ZM79.5789 12.2241L84.4193 20.608L84.5084 20.7624H84.6868H97.0412H97.2195L97.3087 20.608L102.149 12.2241L101.436 12.2241L96.8629 20.1447H84.8651L80.2921 12.2241L79.5789 12.2241ZM99.0604 12.2241L95.7643 17.933L95.6752 18.0874H95.4969H86.231H86.0527L85.9636 17.933L82.6675 12.2241L83.3808 12.2241L86.4094 17.4697H95.3185L98.3471 12.2241L99.0604 12.2241ZM85.7562 12.2241L87.508 15.2582L87.5971 15.4126H87.7754H93.9526H94.131L94.2201 15.2582L95.9719 12.2241L95.2586 12.2241L93.7743 14.7949H87.9538L86.4695 12.2241L85.7562 12.2241ZM92.8833 12.2241L88.8452 12.2241L89.0525 12.5832L89.1416 12.7376H89.3199H92.4086H92.5869L92.676 12.5832L92.8833 12.2241ZM21.4101 38.6085L32.5692 57.9367L20.0364 79.644H8.85405L8.4974 79.0263H19.6798L31.8559 57.9367L21.0534 39.2262L21.4101 38.6085ZM7.30976 76.9692H18.4921L29.4806 57.9367L19.8657 41.2833L19.5091 41.901L28.7673 57.9367L18.1355 76.3515H6.95312L7.30976 76.9692ZM18.3214 43.9581L26.392 57.9367L16.9478 74.2944H5.76545L5.40881 73.6767H16.5912L25.6787 57.9367L17.9648 44.5758L18.3214 43.9581ZM16.7771 46.6329L16.4205 47.2506L22.5901 57.9367L15.0469 71.0019H3.8645L4.22114 71.6196H15.4035L23.3034 57.9367L16.7771 46.6329ZM3.89541 68.9447H13.6488H13.8271L13.9163 68.7903L20.0935 58.0911L20.1827 57.9366L20.0935 57.7822L15.2168 49.3355L14.8602 49.9532L19.4694 57.9366L13.4705 68.327H4.25205L3.89541 68.9447ZM5.43984 66.2697H12.1045H12.2828L12.372 66.1153L17.0049 58.0908L17.094 57.9364L17.0049 57.782L13.6726 52.0102L13.3159 52.6279L16.3808 57.9364L11.9262 65.652H5.79648L5.43984 66.2697ZM6.98412 63.5949H10.5601H10.7385L10.8276 63.4405L13.9162 58.0909L14.0054 57.9364L13.9162 57.782L12.1282 54.6851L11.7716 55.3028L13.2921 57.9364L10.3818 62.9772H7.34076L6.98412 63.5949ZM8.52855 60.9199H9.01618H9.1945L9.28366 60.7655L10.828 58.0907L10.9171 57.9362L10.828 57.7818L10.5841 57.3595L8.52855 60.9199ZM28.3543 113.419L32.5692 106.119L20.0364 84.4116H11.6066L11.9632 85.0293H19.6798L31.8559 106.119L27.9976 112.802L28.3543 113.419ZM26.81 110.745L29.4806 106.119L18.4921 87.0864H13.1509L13.5076 87.7041H18.1355L28.7673 106.119L26.4533 110.127L26.81 110.745ZM25.2657 108.07L26.392 106.119L16.9478 89.7612H14.6952L15.0519 90.3789H16.5912L25.6787 106.119L24.909 107.452L25.2657 108.07ZM72.8601 127.776L61.7326 108.503H36.6671L31.0914 118.16L31.448 118.778L37.0238 109.12H61.376L72.1468 127.776H72.8601ZM69.7715 127.776L60.1883 111.178H38.2114L32.6357 120.835L32.9923 121.453L38.5681 111.795H59.8317L69.0582 127.776H69.7715ZM66.6829 127.776L58.644 113.852H39.7557L34.18 123.51L34.5366 124.128L40.1124 114.47H58.2874L65.9696 127.776H66.6829ZM63.5943 127.776L57.0997 116.527H41.3L35.7243 126.185L36.0809 126.802L41.6567 117.145H56.7431L62.881 127.776H63.5943ZM60.4737 127.776L55.6125 119.356L55.5233 119.202H55.345H42.9906H42.8123L42.7231 119.356L37.8619 127.776H38.5751L43.1689 119.819H55.1667L59.7604 127.776H60.4737ZM57.3851 127.776L54.0681 122.031L53.979 121.877H53.8007H44.5348H44.3565L44.2674 122.031L40.9505 127.776H41.6637L44.7132 122.494H53.6223L56.6718 127.776H57.3851ZM54.2964 127.776L52.5238 124.706L52.4346 124.551H52.2563H46.0791H45.9008L45.8116 124.706L44.039 127.776H44.7523L46.2574 125.169H52.078L53.5831 127.776H54.2964ZM51.2079 127.776L50.9796 127.381L50.8904 127.226H50.7121H47.6235H47.4452L47.356 127.381L47.1278 127.776H51.2079ZM131.125 60.3204H120.06L107.527 82.0278L118.648 101.291L119.005 100.673L108.24 82.0278L120.416 60.9381H131.482L131.125 60.3204ZM132.67 62.9953H121.604L110.615 82.0278L120.193 98.616L120.549 97.9982L111.329 82.0278L121.96 63.613H133.026L132.67 62.9953ZM134.214 65.6701L123.148 65.6701L113.704 82.0278L121.737 95.9411L122.094 95.3234L114.417 82.0278L123.505 66.2878L134.571 66.2878L134.214 65.6701ZM135.758 68.3449H124.692L116.793 82.0278L123.281 93.2663L123.638 92.6486L117.506 82.0278L125.049 68.9626H136.115L135.758 68.3449ZM136.125 71.0194H126.383H126.205L126.115 71.1738L119.938 81.8731L119.849 82.0275L119.938 82.1819L124.809 90.6192L125.166 90.0015L120.562 82.0275L126.561 71.6371H135.769L136.125 71.0194ZM134.581 73.6943H127.927H127.749L127.66 73.8487L123.027 81.8731L122.938 82.0275L123.027 82.182L126.354 87.9444L126.71 87.3267L123.651 82.0275L128.106 74.312H134.224L134.581 73.6943ZM133.037 76.3691H129.472H129.293L129.204 76.5235L126.116 81.8732L126.026 82.0276L126.116 82.182L127.898 85.2696L128.255 84.6518L126.74 82.0276L129.65 76.9868H132.68L133.037 76.3691ZM131.493 79.0437H131.016H130.838L130.749 79.1981L129.204 81.8729L129.115 82.0274L129.204 82.1818L129.443 82.5944L131.493 79.0437ZM111.683 26.646L107.527 33.8455L120.06 55.5529H128.373L128.016 54.9352H120.416L108.24 33.8455L112.04 27.2637L111.683 26.646ZM113.228 29.3208L110.615 33.8455L121.604 52.8781H126.829L126.472 52.2604H121.96L111.329 33.8455L113.584 29.9385L113.228 29.3208ZM114.772 31.9956L113.704 33.8455L123.148 50.2033H125.284L124.928 49.5856H123.505L114.417 33.8455L115.129 32.6133L114.772 31.9956Z" fill="#8A8C8E"/>
</svg>
