<svg width="140" height="140" viewBox="0 0 140 140" fill="none" xmlns="http://www.w3.org/2000/svg">
<g clip-path="url(#clip0_308_24835)">
<path fill-rule="evenodd" clip-rule="evenodd" d="M73.2026 86.0131L73.2026 88.3006L72.7451 88.3006L72.7451 86.0131L73.2026 86.0131ZM71.8301 86.0131L71.8301 88.3006L71.3726 88.3006L71.3726 86.0131L71.8301 86.0131ZM70.4575 88.3006L70.4575 86.0131L70 86.0131L70 88.3006L70.4575 88.3006ZM69.085 86.0131L69.085 88.3006L68.6275 88.3006L68.6275 86.0131L69.085 86.0131ZM67.7124 88.3006L67.7124 86.0131L67.2549 86.0131L67.2549 88.3006L67.7124 88.3006ZM73.2026 88.7582L73.2026 106.144L72.7451 106.144L72.7451 88.7582L73.2026 88.7582ZM70.4575 106.144L70.4575 88.7582L70 88.7582L70 106.144L70.4575 106.144ZM67.7124 88.7582L67.7124 106.144L67.2549 106.144L67.2549 88.7582L67.7124 88.7582ZM73.2026 108.889L73.2026 106.601L72.7451 106.601L72.7451 108.889L73.2026 108.889ZM71.8301 106.601L71.8301 108.889L71.3726 108.889L71.3726 106.601L71.8301 106.601ZM70.4575 108.889L70.4575 106.601L70 106.601L70 108.889L70.4575 108.889ZM69.085 106.601L69.085 108.889L68.6275 108.889L68.6275 106.601L69.085 106.601ZM67.7124 108.889L67.7124 106.601L67.2549 106.601L67.2549 108.889L67.7124 108.889Z" fill="black" fill-opacity="0.4"/>
</g>
<g clip-path="url(#clip1_308_24835)">
<path fill-rule="evenodd" clip-rule="evenodd" d="M73.2026 113.464L73.2026 115.752L72.7451 115.752L72.7451 113.464L73.2026 113.464ZM71.8301 113.464L71.8301 115.752L71.3726 115.752L71.3726 113.464L71.8301 113.464ZM70.4575 115.752L70.4575 113.464L70 113.464L70 115.752L70.4575 115.752ZM69.085 113.464L69.085 115.752L68.6275 115.752L68.6275 113.464L69.085 113.464ZM67.7124 115.752L67.7124 113.464L67.2549 113.464L67.2549 115.752L67.7124 115.752ZM73.2026 116.209L73.2026 133.595L72.7451 133.595L72.7451 116.209L73.2026 116.209ZM70.4575 133.595L70.4575 116.209L70 116.209L70 133.595L70.4575 133.595ZM67.7124 116.209L67.7124 133.595L67.2549 133.595L67.2549 116.209L67.7124 116.209ZM73.2026 136.34L73.2026 134.052L72.7451 134.052L72.7451 136.34L73.2026 136.34ZM71.8301 134.052L71.8301 136.34L71.3726 136.34L71.3726 134.052L71.8301 134.052ZM70.4575 136.34L70.4575 134.052L70 134.052L70 136.34L70.4575 136.34ZM69.085 134.052L69.085 136.34L68.6275 136.34L68.6275 134.052L69.085 134.052ZM67.7124 136.34L67.7124 134.052L67.2549 134.052L67.2549 136.34L67.7124 136.34Z" fill="black" fill-opacity="0.4"/>
</g>
<g clip-path="url(#clip2_308_24835)">
<path fill-rule="evenodd" clip-rule="evenodd" d="M73.2026 3.66016L73.2026 5.94774L72.7451 5.94774L72.7451 3.66016L73.2026 3.66016ZM71.8301 3.66016L71.8301 5.94774L71.3726 5.94774L71.3726 3.66016L71.8301 3.66016ZM70.4575 5.94774L70.4575 3.66016L70 3.66016L70 5.94774L70.4575 5.94774ZM69.085 3.66016L69.085 5.94774L68.6275 5.94774L68.6275 3.66016L69.085 3.66016ZM67.7124 5.94774L67.7124 3.66016L67.2549 3.66016L67.2549 5.94774L67.7124 5.94774ZM73.2026 6.40525L73.2026 23.7909L72.7451 23.7909L72.7451 6.40525L73.2026 6.40525ZM70.4575 23.7909L70.4575 6.40525L70 6.40525L70 23.7909L70.4575 23.7909ZM67.7124 6.40525L67.7124 23.7909L67.2549 23.7909L67.2549 6.40525L67.7124 6.40525ZM73.2026 26.536L73.2026 24.2484L72.7451 24.2484L72.7451 26.536L73.2026 26.536ZM71.8301 24.2484L71.8301 26.536L71.3726 26.536L71.3726 24.2484L71.8301 24.2484ZM70.4575 26.536L70.4575 24.2484L70 24.2484L70 26.536L70.4575 26.536ZM69.085 24.2484L69.085 26.536L68.6275 26.536L68.6275 24.2484L69.085 24.2484ZM67.7124 26.536L67.7124 24.2484L67.2549 24.2484L67.2549 26.536L67.7124 26.536Z" fill="black" fill-opacity="0.4"/>
</g>
<g clip-path="url(#clip3_308_24835)">
<path fill-rule="evenodd" clip-rule="evenodd" d="M73.2026 31.1111L73.2026 33.3987L72.7451 33.3987L72.7451 31.1111L73.2026 31.1111ZM71.8301 31.1111L71.8301 33.3987L71.3726 33.3987L71.3726 31.1111L71.8301 31.1111ZM70.4575 33.3987L70.4575 31.1111L70 31.1111L70 33.3987L70.4575 33.3987ZM69.085 31.1111L69.085 33.3987L68.6275 33.3987L68.6275 31.1111L69.085 31.1111ZM67.7124 33.3987L67.7124 31.1111L67.2549 31.1111L67.2549 33.3987L67.7124 33.3987ZM73.2026 33.8562L73.2026 51.2419L72.7451 51.2419L72.7451 33.8562L73.2026 33.8562ZM70.4575 51.2419L70.4575 33.8562L70 33.8562L70 51.2419L70.4575 51.2419ZM67.7124 33.8562L67.7124 51.2419L67.2549 51.2419L67.2549 33.8562L67.7124 33.8562ZM73.2026 53.987L73.2026 51.6994L72.7451 51.6994L72.7451 53.987L73.2026 53.987ZM71.8301 51.6994L71.8301 53.987L71.3726 53.987L71.3726 51.6994L71.8301 51.6994ZM70.4575 53.987L70.4575 51.6994L70 51.6994L70 53.987L70.4575 53.987ZM69.085 51.6994L69.085 53.987L68.6275 53.987L68.6275 51.6994L69.085 51.6994ZM67.7124 53.987L67.7124 51.6994L67.2549 51.6994L67.2549 53.987L67.7124 53.987Z" fill="black" fill-opacity="0.4"/>
</g>
<g clip-path="url(#clip4_308_24835)">
<path fill-rule="evenodd" clip-rule="evenodd" d="M75.2329 54.5309L76.3767 52.5498L76.7729 52.7786L75.6291 54.7597L75.2329 54.5309ZM76.4216 55.2172L77.5654 53.2361L77.9616 53.4649L76.8178 55.446L76.4216 55.2172ZM78.754 53.9224L77.6102 55.9035L78.0064 56.1322L79.1502 54.1511L78.754 53.9224ZM78.7989 56.5897L79.9427 54.6086L80.3389 54.8374L79.1951 56.8185L78.7989 56.5897ZM81.1314 55.2949L79.9876 57.276L80.3838 57.5048L81.5276 55.5237L81.1314 55.2949ZM76.6055 52.1536L85.2983 37.0972L85.6945 37.326L77.0017 52.3824L76.6055 52.1536ZM87.6756 38.4698L78.9827 53.5261L79.379 53.7549L88.0718 38.6985L87.6756 38.4698ZM81.3601 54.8987L90.0529 39.8423L90.4492 40.0711L81.7564 55.1275L81.3601 54.8987ZM86.6708 34.7199L85.527 36.701L85.9233 36.9297L87.0671 34.9486L86.6708 34.7199ZM86.7157 37.3873L87.8595 35.4062L88.2557 35.6349L87.112 37.616L86.7157 37.3873ZM89.0481 36.0924L87.9043 38.0735L88.3005 38.3023L89.4443 36.3212L89.0481 36.0924ZM89.093 38.7598L90.2368 36.7787L90.633 37.0075L89.4892 38.9886L89.093 38.7598ZM91.4255 37.465L90.2817 39.4461L90.6779 39.6748L91.8217 37.6937L91.4255 37.465Z" fill="black" fill-opacity="0.4"/>
</g>
<g clip-path="url(#clip5_308_24835)">
<path fill-rule="evenodd" clip-rule="evenodd" d="M88.9585 30.7577L90.1023 28.7766L90.4985 29.0053L89.3547 30.9864L88.9585 30.7577ZM90.1472 31.4439L91.291 29.4628L91.6872 29.6916L90.5434 31.6727L90.1472 31.4439ZM92.4796 30.1491L91.3358 32.1302L91.732 32.359L92.8758 30.3779L92.4796 30.1491ZM92.5245 32.8165L93.6683 30.8354L94.0645 31.0641L92.9207 33.0453L92.5245 32.8165ZM94.857 31.5217L93.7132 33.5028L94.1094 33.7315L95.2532 31.7504L94.857 31.5217ZM90.3311 28.3803L99.0239 13.324L99.4201 13.5527L90.7273 28.6091L90.3311 28.3803ZM101.401 14.6965L92.7083 29.7529L93.1046 29.9817L101.797 14.9253L101.401 14.6965ZM95.0857 31.1254L103.779 16.0691L104.175 16.2978L95.4819 31.3542L95.0857 31.1254ZM100.396 10.9466L99.2526 12.9277L99.6488 13.1565L100.793 11.1754L100.396 10.9466ZM100.441 13.614L101.585 11.6329L101.981 11.8617L100.838 13.8428L100.441 13.614ZM102.774 12.3192L101.63 14.3003L102.026 14.529L103.17 12.5479L102.774 12.3192ZM102.819 14.9866L103.962 13.0055L104.359 13.2342L103.215 15.2153L102.819 14.9866ZM105.151 13.6917L104.007 15.6728L104.404 15.9016L105.547 13.9205L105.151 13.6917Z" fill="black" fill-opacity="0.4"/>
</g>
<g clip-path="url(#clip6_308_24835)">
<path fill-rule="evenodd" clip-rule="evenodd" d="M34.0567 125.851L35.2004 123.87L35.5967 124.098L34.4529 126.079L34.0567 125.851ZM35.2453 126.537L36.3891 124.556L36.7854 124.785L35.6416 126.766L35.2453 126.537ZM37.5777 125.242L36.4339 127.223L36.8301 127.452L37.9739 125.471L37.5777 125.242ZM37.6226 127.91L38.7664 125.928L39.1626 126.157L38.0188 128.138L37.6226 127.91ZM39.9551 126.615L38.8113 128.596L39.2075 128.825L40.3513 126.843L39.9551 126.615ZM35.4292 123.473L44.122 108.417L44.5182 108.646L35.8254 123.702L35.4292 123.473ZM46.4993 109.79L37.8065 124.846L38.2027 125.075L46.8955 110.018L46.4993 109.79ZM40.1839 126.218L48.8767 111.162L49.2729 111.391L40.5801 126.447L40.1839 126.218ZM45.4946 106.04L44.3508 108.021L44.747 108.25L45.8908 106.268L45.4946 106.04ZM45.5395 108.707L46.6833 106.726L47.0795 106.955L45.9357 108.936L45.5395 108.707ZM47.8718 107.412L46.728 109.393L47.1243 109.622L48.2681 107.641L47.8718 107.412ZM47.9167 110.08L49.0605 108.098L49.4568 108.327L48.313 110.308L47.9167 110.08ZM50.2492 108.785L49.1054 110.766L49.5017 110.995L50.6454 109.014L50.2492 108.785Z" fill="black" fill-opacity="0.4"/>
</g>
<g clip-path="url(#clip7_308_24835)">
<path fill-rule="evenodd" clip-rule="evenodd" d="M47.7822 102.077L48.926 100.096L49.3223 100.325L48.1785 102.306L47.7822 102.077ZM48.9709 102.764L50.1147 100.783L50.5109 101.011L49.3672 102.992L48.9709 102.764ZM51.3033 101.469L50.1595 103.45L50.5557 103.679L51.6995 101.698L51.3033 101.469ZM51.3482 104.136L52.492 102.155L52.8882 102.384L51.7444 104.365L51.3482 104.136ZM53.6807 102.841L52.5369 104.823L52.9331 105.051L54.0769 103.07L53.6807 102.841ZM49.1548 99.7001L57.8476 84.6437L58.2438 84.8725L49.551 99.9289L49.1548 99.7001ZM60.2249 86.0163L51.5321 101.073L51.9283 101.301L60.6211 86.245L60.2249 86.0163ZM53.9095 102.445L62.6023 87.3888L62.9985 87.6176L54.3057 102.674L53.9095 102.445ZM59.2201 82.2664L58.0764 84.2475L58.4726 84.4763L59.6164 82.4952L59.2201 82.2664ZM59.265 84.9338L60.4088 82.9527L60.8051 83.1814L59.6613 85.1625L59.265 84.9338ZM61.5974 83.6389L60.4536 85.62L60.8499 85.8488L61.9936 83.8677L61.5974 83.6389ZM61.6423 86.3063L62.7861 84.3252L63.1823 84.554L62.0385 86.5351L61.6423 86.3063ZM63.9748 85.0115L62.831 86.9926L63.2272 87.2214L64.371 85.2402L63.9748 85.0115Z" fill="black" fill-opacity="0.4"/>
</g>
<g clip-path="url(#clip8_308_24835)">
<path fill-rule="evenodd" clip-rule="evenodd" d="M84.6434 57.8474L99.6998 49.1546L99.9285 49.5509L84.8722 58.2437L84.6434 57.8474ZM82.2661 59.22L84.2472 58.0762L84.476 58.4724L82.4949 59.6162L82.2661 59.22ZM82.9524 60.4087L84.9335 59.2649L85.1623 59.6611L83.1812 60.8049L82.9524 60.4087ZM85.6198 60.4535L83.6387 61.5973L83.8674 61.9935L85.8485 60.8497L85.6198 60.4535ZM84.3249 62.786L86.3061 61.6422L86.5348 62.0384L84.5537 63.1822L84.3249 62.786ZM86.9923 62.8309L85.0112 63.9746L85.24 64.3709L87.2211 63.2271L86.9923 62.8309ZM101.072 51.532L86.0159 60.2248L86.2447 60.621L101.301 51.9282L101.072 51.532ZM87.3885 62.6021L102.445 53.9093L102.674 54.3055L87.6173 62.9983L87.3885 62.6021ZM102.077 47.7821L100.096 48.9259L100.325 49.3221L102.306 48.1783L102.077 47.7821ZM100.782 50.1145L102.763 48.9707L102.992 49.367L101.011 50.5108L100.782 50.1145ZM103.45 50.1594L101.469 51.3032L101.697 51.6994L103.678 50.5556L103.45 50.1594ZM102.155 52.4919L104.136 51.3481L104.365 51.7443L102.384 52.8881L102.155 52.4919ZM104.822 52.5367L102.841 53.6805L103.07 54.0767L105.051 52.933L104.822 52.5367Z" fill="black" fill-opacity="0.4"/>
</g>
<g clip-path="url(#clip9_308_24835)">
<path fill-rule="evenodd" clip-rule="evenodd" d="M108.417 44.122L123.473 35.4292L123.702 35.8254L108.646 44.5182L108.417 44.122ZM106.04 45.4945L108.021 44.3507L108.249 44.747L106.268 45.8907L106.04 45.4945ZM106.726 46.6832L108.707 45.5394L108.936 45.9356L106.955 47.0794L106.726 46.6832ZM109.393 46.7281L107.412 47.8719L107.641 48.2681L109.622 47.1243L109.393 46.7281ZM108.098 49.0605L110.079 47.9167L110.308 48.3129L108.327 49.4567L108.098 49.0605ZM110.766 49.1054L108.785 50.2492L109.013 50.6454L110.995 49.5016L110.766 49.1054ZM124.846 37.8065L109.789 46.4993L110.018 46.8955L125.075 38.2027L124.846 37.8065ZM111.162 48.8766L126.218 40.1838L126.447 40.58L111.391 49.2728L111.162 48.8766ZM125.851 34.0566L123.87 35.2004L124.098 35.5966L126.079 34.4528L125.851 34.0566ZM124.556 36.3891L126.537 35.2453L126.766 35.6415L124.785 36.7853L124.556 36.3891ZM127.223 36.4339L125.242 37.5777L125.471 37.974L127.452 36.8302L127.223 36.4339ZM125.928 38.7664L127.909 37.6226L128.138 38.0188L126.157 39.1626L125.928 38.7664ZM128.596 38.8113L126.615 39.9551L126.843 40.3513L128.824 39.2075L128.596 38.8113Z" fill="black" fill-opacity="0.4"/>
</g>
<g clip-path="url(#clip10_308_24835)">
<path fill-rule="evenodd" clip-rule="evenodd" d="M13.3241 99.0239L28.3805 90.3311L28.6092 90.7273L13.5528 99.4201L13.3241 99.0239ZM10.9468 100.396L12.9279 99.2527L13.1567 99.6489L11.1755 100.793L10.9468 100.396ZM11.6331 101.585L13.6142 100.441L13.8429 100.838L11.8618 101.981L11.6331 101.585ZM14.3004 101.63L12.3193 102.774L12.5481 103.17L14.5292 102.026L14.3004 101.63ZM13.0056 103.962L14.9867 102.819L15.2155 103.215L13.2344 104.359L13.0056 103.962ZM15.673 104.007L13.6919 105.151L13.9206 105.547L15.9017 104.404L15.673 104.007ZM29.753 92.7084L14.6966 101.401L14.9254 101.797L29.9818 93.1046L29.753 92.7084ZM16.0692 103.779L31.1256 95.0857L31.3543 95.482L16.2979 104.175L16.0692 103.779ZM30.7578 88.9585L28.7767 90.1023L29.0055 90.4985L30.9866 89.3548L30.7578 88.9585ZM29.463 91.291L31.4441 90.1472L31.6729 90.5434L29.6918 91.6872L29.463 91.291ZM32.1304 91.3359L30.1493 92.4797L30.3781 92.8759L32.3592 91.7321L32.1304 91.3359ZM30.8356 93.6683L32.8167 92.5245L33.0454 92.9207L31.0643 94.0645L30.8356 93.6683ZM33.5029 93.7132L31.5218 94.857L31.7506 95.2532L33.7317 94.1094L33.5029 93.7132Z" fill="black" fill-opacity="0.4"/>
</g>
<g clip-path="url(#clip11_308_24835)">
<path fill-rule="evenodd" clip-rule="evenodd" d="M37.0975 85.2984L52.1539 76.6056L52.3826 77.0018L37.3263 85.6947L37.0975 85.2984ZM34.7202 86.671L36.7013 85.5272L36.9301 85.9234L34.949 87.0672L34.7202 86.671ZM35.4065 87.8596L37.3876 86.7159L37.6164 87.1121L35.6353 88.2559L35.4065 87.8596ZM38.0739 87.9045L36.0928 89.0483L36.3215 89.4445L38.3026 88.3007L38.0739 87.9045ZM36.7791 90.237L38.7602 89.0932L38.9889 89.4894L37.0078 90.6332L36.7791 90.237ZM39.4464 90.2818L37.4653 91.4256L37.6941 91.8219L39.6752 90.6781L39.4464 90.2818ZM53.5264 78.9829L38.4701 87.6758L38.6988 88.072L53.7552 79.3792L53.5264 78.9829ZM39.8426 90.0531L54.899 81.3603L55.1277 81.7565L40.0714 90.4493L39.8426 90.0531ZM54.5313 75.2331L52.5502 76.3769L52.7789 76.7731L54.76 75.6293L54.5313 75.2331ZM53.2365 77.5655L55.2176 76.4217L55.4463 76.818L53.4652 77.9617L53.2365 77.5655ZM55.9038 77.6104L53.9227 78.7542L54.1515 79.1504L56.1326 78.0066L55.9038 77.6104ZM54.609 79.9429L56.5901 78.7991L56.8189 79.1953L54.8378 80.3391L54.609 79.9429ZM57.2764 79.9877L55.2953 81.1315L55.524 81.5277L57.5051 80.3839L57.2764 79.9877Z" fill="black" fill-opacity="0.4"/>
</g>
<g clip-path="url(#clip12_308_24835)">
<path fill-rule="evenodd" clip-rule="evenodd" d="M86.0127 66.7974H88.3003V67.2549H86.0127V66.7974ZM86.0127 68.1699H88.3003V68.6274H86.0127V68.1699ZM88.3003 69.5425H86.0127V70H88.3003V69.5425ZM86.0127 70.915H88.3003V71.3725H86.0127V70.915ZM88.3003 72.2876H86.0127V72.7451H88.3003V72.2876ZM88.7578 66.7974H106.143V67.2549H88.7578V66.7974ZM106.143 69.5425H88.7578V70H106.143V69.5425ZM88.7578 72.2876H106.143V72.7451H88.7578V72.2876ZM108.889 66.7974H106.601V67.2549H108.889V66.7974ZM106.601 68.1699H108.889V68.6274H106.601V68.1699ZM108.889 69.5425H106.601V70H108.889V69.5425ZM106.601 70.915H108.889V71.3725H106.601V70.915ZM108.889 72.2876H106.601V72.7451H108.889V72.2876Z" fill="black" fill-opacity="0.4"/>
</g>
<g clip-path="url(#clip13_308_24835)">
<path fill-rule="evenodd" clip-rule="evenodd" d="M113.464 66.7974H115.751V67.2549H113.464V66.7974ZM113.464 68.1699H115.751V68.6274H113.464V68.1699ZM115.751 69.5425H113.464V70H115.751V69.5425ZM113.464 70.915H115.751V71.3725H113.464V70.915ZM115.751 72.2876H113.464V72.7451H115.751V72.2876ZM116.209 66.7974H133.595V67.2549H116.209V66.7974ZM133.595 69.5425H116.209V70H133.595V69.5425ZM116.209 72.2876H133.595V72.7451H116.209V72.2876ZM136.34 66.7974H134.052V67.2549H136.34V66.7974ZM134.052 68.1699H136.34V68.6274H134.052V68.1699ZM136.34 69.5425H134.052V70H136.34V69.5425ZM134.052 70.915H136.34V71.3725H134.052V70.915ZM136.34 72.2876H134.052V72.7451H136.34V72.2876Z" fill="black" fill-opacity="0.4"/>
</g>
<g clip-path="url(#clip14_308_24835)">
<path fill-rule="evenodd" clip-rule="evenodd" d="M3.66016 66.7974H5.94774V67.2549H3.66016V66.7974ZM3.66016 68.1699H5.94774V68.6274H3.66016V68.1699ZM5.94774 69.5425H3.66016V70H5.94774V69.5425ZM3.66016 70.915H5.94774V71.3725H3.66016V70.915ZM5.94774 72.2876H3.66016V72.7451H5.94774V72.2876ZM6.40525 66.7974H23.7909V67.2549H6.40525V66.7974ZM23.7909 69.5425H6.40525V70H23.7909V69.5425ZM6.40525 72.2876H23.7909V72.7451H6.40525V72.2876ZM26.536 66.7974H24.2484V67.2549H26.536V66.7974ZM24.2484 68.1699H26.536V68.6274H24.2484V68.1699ZM26.536 69.5425H24.2484V70H26.536V69.5425ZM24.2484 70.915H26.536V71.3725H24.2484V70.915ZM26.536 72.2876H24.2484V72.7451H26.536V72.2876Z" fill="black" fill-opacity="0.4"/>
</g>
<g clip-path="url(#clip15_308_24835)">
<path fill-rule="evenodd" clip-rule="evenodd" d="M31.1113 66.7974H33.3989V67.2549H31.1113V66.7974ZM31.1113 68.1699H33.3989V68.6274H31.1113V68.1699ZM33.3989 69.5425H31.1113V70H33.3989V69.5425ZM31.1113 70.915H33.3989V71.3725H31.1113V70.915ZM33.3989 72.2876H31.1113V72.7451H33.3989V72.2876ZM33.8564 66.7974H51.242V67.2549H33.8564V66.7974ZM51.242 69.5425H33.8564V70H51.242V69.5425ZM33.8564 72.2876H51.242V72.7451H33.8564V72.2876ZM53.9871 66.7974H51.6996V67.2549H53.9871V66.7974ZM51.6996 68.1699H53.9871V68.6274H51.6996V68.1699ZM53.9871 69.5425H51.6996V70H53.9871V69.5425ZM51.6996 70.915H53.9871V71.3725H51.6996V70.915ZM53.9871 72.2876H51.6996V72.7451H53.9871V72.2876Z" fill="black" fill-opacity="0.4"/>
</g>
<g clip-path="url(#clip16_308_24835)">
<path fill-rule="evenodd" clip-rule="evenodd" d="M105.28 86.6709L103.299 85.5271L103.07 85.9233L105.052 87.0671L105.28 86.6709ZM85.4692 75.233L87.4503 76.3768L87.2216 76.773L85.2405 75.6292L85.4692 75.233ZM84.783 76.4216L86.7641 77.5654L86.5353 77.9617L84.5542 76.8179L84.783 76.4216ZM86.0778 78.7541L84.0967 77.6103L83.8679 78.0065L85.849 79.1503L86.0778 78.7541ZM83.4104 78.799L85.3915 79.9428L85.1628 80.339L83.1817 79.1952L83.4104 78.799ZM84.7052 81.1314L82.7241 79.9876L82.4954 80.3839L84.4765 81.5276L84.7052 81.1314ZM87.8465 76.6055L102.903 85.2983L102.674 85.6946L87.6177 77.0018L87.8465 76.6055ZM101.53 87.6757L86.474 78.9829L86.2452 79.3791L101.302 88.0719L101.53 87.6757ZM85.1014 81.3602L100.158 90.053L99.929 90.4492L84.8727 81.7564L85.1014 81.3602ZM102.613 86.7158L104.594 87.8596L104.365 88.2558L102.384 87.112L102.613 86.7158ZM103.908 89.0482L101.927 87.9044L101.698 88.3006L103.679 89.4444L103.908 89.0482ZM101.24 89.0931L103.221 90.2369L102.993 90.6331L101.012 89.4893L101.24 89.0931ZM102.535 91.4255L100.554 90.2817L100.325 90.678L102.306 91.8218L102.535 91.4255Z" fill="black" fill-opacity="0.4"/>
</g>
<g clip-path="url(#clip17_308_24835)">
<path fill-rule="evenodd" clip-rule="evenodd" d="M129.054 100.396L127.073 99.2526L126.844 99.6488L128.825 100.793L129.054 100.396ZM109.243 88.9585L111.224 90.1023L110.995 90.4985L109.014 89.3547L109.243 88.9585ZM108.556 90.1472L110.537 91.291L110.309 91.6872L108.328 90.5434L108.556 90.1472ZM109.851 92.4796L107.87 91.3358L107.641 91.7321L109.622 92.8758L109.851 92.4796ZM107.184 92.5245L109.165 93.6683L108.936 94.0645L106.955 92.9207L107.184 92.5245ZM108.479 94.8569L106.498 93.7132L106.269 94.1094L108.25 95.2532L108.479 94.8569ZM111.62 90.3311L126.676 99.0239L126.448 99.4201L111.391 90.7273L111.62 90.3311ZM125.304 101.401L110.247 92.7084L110.019 93.1046L125.075 101.797L125.304 101.401ZM108.875 95.0857L123.931 103.779L123.702 104.175L108.646 95.4819L108.875 95.0857ZM126.386 100.441L128.367 101.585L128.139 101.981L126.158 100.838L126.386 100.441ZM127.681 102.774L125.7 101.63L125.471 102.026L127.452 103.17L127.681 102.774ZM125.014 102.819L126.995 103.962L126.766 104.359L124.785 103.215L125.014 102.819ZM126.309 105.151L124.328 104.007L124.099 104.403L126.08 105.547L126.309 105.151Z" fill="black" fill-opacity="0.4"/>
</g>
<g clip-path="url(#clip18_308_24835)">
<path fill-rule="evenodd" clip-rule="evenodd" d="M33.9605 45.4944L31.9794 44.3506L31.7506 44.7469L33.7317 45.8907L33.9605 45.4944ZM14.1494 34.0565L16.1305 35.2003L15.9018 35.5965L13.9207 34.4527L14.1494 34.0565ZM13.4631 35.2452L15.4442 36.389L15.2155 36.7852L13.2344 35.6414L13.4631 35.2452ZM14.758 37.5776L12.7769 36.4339L12.5481 36.8301L14.5292 37.9739L14.758 37.5776ZM12.0906 37.6225L14.0717 38.7663L13.8429 39.1625L11.8618 38.0187L12.0906 37.6225ZM13.3854 39.955L11.4043 38.8112L11.1756 39.2074L13.1567 40.3512L13.3854 39.955ZM16.5267 35.4291L31.5831 44.1219L31.3543 44.5181L16.2979 35.8253L16.5267 35.4291ZM30.2105 46.4992L15.1541 37.8064L14.9254 38.2026L29.9818 46.8954L30.2105 46.4992ZM13.7816 40.1837L28.838 48.8765L28.6092 49.2728L13.5528 40.5799L13.7816 40.1837ZM31.2931 45.5393L33.2742 46.6831L33.0454 47.0793L31.0643 45.9355L31.2931 45.5393ZM32.5879 47.8718L30.6068 46.728L30.3781 47.1242L32.3592 48.268L32.5879 47.8718ZM29.9205 47.9166L31.9016 49.0604L31.6729 49.4566L29.6918 48.3129L29.9205 47.9166ZM31.2154 50.2491L29.2343 49.1053L29.0055 49.5015L30.9866 50.6453L31.2154 50.2491Z" fill="black" fill-opacity="0.4"/>
</g>
<g clip-path="url(#clip19_308_24835)">
<path fill-rule="evenodd" clip-rule="evenodd" d="M57.7339 59.2199L55.7528 58.0761L55.524 58.4723L57.5051 59.6161L57.7339 59.2199ZM37.9228 47.782L39.9039 48.9258L39.6752 49.322L37.6941 48.1782L37.9228 47.782ZM37.2366 48.9707L39.2177 50.1144L38.9889 50.5107L37.0078 49.3669L37.2366 48.9707ZM38.5314 51.3031L36.5503 50.1593L36.3215 50.5555L38.3026 51.6993L38.5314 51.3031ZM35.864 51.348L37.8451 52.4918L37.6164 52.888L35.6353 51.7442L35.864 51.348ZM37.1589 53.6804L35.1777 52.5366L34.949 52.9329L36.9301 54.0767L37.1589 53.6804ZM40.3001 49.1545L55.3565 57.8474L55.1278 58.2436L40.0714 49.5508L40.3001 49.1545ZM53.984 60.2247L38.9276 51.5319L38.6988 51.9281L53.7552 60.6209L53.984 60.2247ZM37.555 53.9092L52.6114 62.602L52.3827 62.9982L37.3263 54.3054L37.555 53.9092ZM55.0665 59.2648L57.0476 60.4086L56.8189 60.8048L54.8378 59.661L55.0665 59.2648ZM56.3614 61.5972L54.3803 60.4534L54.1515 60.8497L56.1326 61.9934L56.3614 61.5972ZM53.694 61.6421L55.6751 62.7859L55.4463 63.1821L53.4652 62.0383L53.694 61.6421ZM54.9888 63.9745L53.0077 62.8308L52.7789 63.227L54.76 64.3708L54.9888 63.9745Z" fill="black" fill-opacity="0.4"/>
</g>
<g clip-path="url(#clip20_308_24835)">
<path fill-rule="evenodd" clip-rule="evenodd" d="M80.7798 82.2664L81.9236 84.2475L81.5274 84.4763L80.3836 82.4952L80.7798 82.2664ZM79.5911 82.9527L80.7349 84.9338L80.3387 85.1626L79.1949 83.1815L79.5911 82.9527ZM79.5463 85.6201L78.4025 83.639L78.0063 83.8677L79.1501 85.8488L79.5463 85.6201ZM77.2138 84.3253L78.3576 86.3064L77.9614 86.5351L76.8176 84.554L77.2138 84.3253ZM77.1689 86.9926L76.0251 85.0115L75.6289 85.2403L76.7727 87.2214L77.1689 86.9926ZM82.1523 84.6438L90.8452 99.7001L90.4489 99.9289L81.7561 84.8725L82.1523 84.6438ZM88.4679 101.073L79.7751 86.0163L79.3788 86.2451L88.0717 101.301L88.4679 101.073ZM77.3977 87.3889L86.0905 102.445L85.6943 102.674L77.0015 87.6176L77.3977 87.3889ZM92.2177 102.077L91.0739 100.096L90.6777 100.325L91.8215 102.306L92.2177 102.077ZM89.8852 100.783L91.029 102.764L90.6328 102.993L89.489 101.011L89.8852 100.783ZM89.8404 103.45L88.6966 101.469L88.3004 101.698L89.4442 103.679L89.8404 103.45ZM87.5079 102.155L88.6517 104.136L88.2555 104.365L87.1117 102.384L87.5079 102.155ZM87.463 104.823L86.3192 102.841L85.923 103.07L87.0668 105.051L87.463 104.823Z" fill="black" fill-opacity="0.4"/>
</g>
<g clip-path="url(#clip21_308_24835)">
<path fill-rule="evenodd" clip-rule="evenodd" d="M94.5054 106.04L95.6492 108.021L95.2529 108.25L94.1092 106.268L94.5054 106.04ZM93.3167 106.726L94.4605 108.707L94.0643 108.936L92.9205 106.955L93.3167 106.726ZM93.2719 109.393L92.1281 107.412L91.7319 107.641L92.8757 109.622L93.2719 109.393ZM90.9394 108.099L92.0832 110.08L91.687 110.308L90.5432 108.327L90.9394 108.099ZM90.8945 110.766L89.7507 108.785L89.3545 109.014L90.4983 110.995L90.8945 110.766ZM95.8779 108.417L104.571 123.473L104.175 123.702L95.4817 108.646L95.8779 108.417ZM102.193 124.846L93.5007 109.79L93.1044 110.018L101.797 125.075L102.193 124.846ZM91.1233 111.162L99.8161 126.218L99.4199 126.447L90.727 111.391L91.1233 111.162ZM105.943 125.851L104.799 123.87L104.403 124.098L105.547 126.079L105.943 125.851ZM103.611 124.556L104.755 126.537L104.358 126.766L103.215 124.785L103.611 124.556ZM103.566 127.223L102.422 125.242L102.026 125.471L103.17 127.452L103.566 127.223ZM101.234 125.928L102.377 127.91L101.981 128.138L100.837 126.157L101.234 125.928ZM101.189 128.596L100.045 126.615L99.6486 126.843L100.792 128.825L101.189 128.596Z" fill="black" fill-opacity="0.4"/>
</g>
<g clip-path="url(#clip22_308_24835)">
<path fill-rule="evenodd" clip-rule="evenodd" d="M39.6035 10.9467L40.7473 12.9278L40.3511 13.1565L39.2073 11.1754L39.6035 10.9467ZM38.4148 11.6329L39.5586 13.614L39.1624 13.8428L38.0186 11.8617L38.4148 11.6329ZM38.37 14.3003L37.2262 12.3192L36.83 12.548L37.9738 14.5291L38.37 14.3003ZM36.0376 13.0055L37.1813 14.9866L36.7851 15.2154L35.6413 13.2343L36.0376 13.0055ZM35.9927 15.6729L34.8489 13.6918L34.4526 13.9205L35.5964 15.9016L35.9927 15.6729ZM40.9761 13.324L49.6689 28.3804L49.2727 28.6091L40.5799 13.5528L40.9761 13.324ZM47.2916 29.7529L38.5988 14.6965L38.2026 14.9253L46.8954 29.9817L47.2916 29.7529ZM36.2214 16.0691L44.9142 31.1255L44.518 31.3542L35.8252 16.2978L36.2214 16.0691ZM51.0414 30.7577L49.8976 28.7766L49.5014 29.0054L50.6452 30.9865L51.0414 30.7577ZM48.7089 29.4629L49.8527 31.444L49.4565 31.6727L48.3127 29.6916L48.7089 29.4629ZM48.6642 32.1303L47.5204 30.1492L47.1241 30.3779L48.2679 32.359L48.6642 32.1303ZM46.3317 30.8354L47.4755 32.8165L47.0792 33.0453L45.9355 31.0642L46.3317 30.8354ZM46.2868 33.5028L45.143 31.5217L44.7468 31.7505L45.8905 33.7316L46.2868 33.5028Z" fill="black" fill-opacity="0.4"/>
</g>
<g clip-path="url(#clip23_308_24835)">
<path fill-rule="evenodd" clip-rule="evenodd" d="M53.3291 34.7199L54.4729 36.701L54.0767 36.9298L52.9329 34.9487L53.3291 34.7199ZM52.1404 35.4062L53.2842 37.3873L52.888 37.6161L51.7442 35.635L52.1404 35.4062ZM52.0956 38.0736L50.9518 36.0925L50.5556 36.3212L51.6994 38.3023L52.0956 38.0736ZM49.7631 36.7787L50.9069 38.7599L50.5107 38.9886L49.3669 37.0075L49.7631 36.7787ZM49.7182 39.4461L48.5744 37.465L48.1782 37.6938L49.322 39.6749L49.7182 39.4461ZM54.7017 37.0972L63.3945 52.1536L62.9982 52.3824L54.3054 37.326L54.7017 37.0972ZM61.0172 53.5262L52.3244 38.4698L51.9282 38.6986L60.621 53.7549L61.0172 53.5262ZM49.947 39.8423L58.6398 54.8987L58.2436 55.1275L49.5508 40.0711L49.947 39.8423ZM64.767 54.531L63.6232 52.5499L63.227 52.7786L64.3708 54.7597L64.767 54.531ZM62.4345 53.2361L63.5783 55.2172L63.1821 55.446L62.0383 53.4649L62.4345 53.2361ZM62.3897 55.9035L61.246 53.9224L60.8497 54.1512L61.9935 56.1323L62.3897 55.9035ZM60.0573 54.6087L61.201 56.5898L60.8048 56.8185L59.661 54.8374L60.0573 54.6087ZM60.0124 57.2761L58.8686 55.295L58.4723 55.5237L59.6161 57.5048L60.0124 57.2761Z" fill="black" fill-opacity="0.4"/>
</g>
<circle cx="70" cy="70" r="68.4774" stroke="black" stroke-opacity="0.8" stroke-width="0.3"/>
<defs>
<clipPath id="clip0_308_24835">
<rect width="22.8758" height="6.40523" fill="white" transform="translate(73.2026 86.0131) rotate(90)"/>
</clipPath>
<clipPath id="clip1_308_24835">
<rect width="22.8758" height="6.40523" fill="white" transform="translate(73.2026 113.464) rotate(90)"/>
</clipPath>
<clipPath id="clip2_308_24835">
<rect width="22.8758" height="6.40523" fill="white" transform="translate(73.2026 3.66016) rotate(90)"/>
</clipPath>
<clipPath id="clip3_308_24835">
<rect width="22.8758" height="6.40523" fill="white" transform="translate(73.2026 31.1111) rotate(90)"/>
</clipPath>
<clipPath id="clip4_308_24835">
<rect width="22.8758" height="6.40523" fill="white" transform="translate(75.2329 54.5309) rotate(-60)"/>
</clipPath>
<clipPath id="clip5_308_24835">
<rect width="22.8758" height="6.40523" fill="white" transform="translate(88.9585 30.7577) rotate(-60)"/>
</clipPath>
<clipPath id="clip6_308_24835">
<rect width="22.8758" height="6.40523" fill="white" transform="translate(34.0566 125.851) rotate(-60)"/>
</clipPath>
<clipPath id="clip7_308_24835">
<rect width="22.8758" height="6.40523" fill="white" transform="translate(47.7822 102.077) rotate(-60)"/>
</clipPath>
<clipPath id="clip8_308_24835">
<rect width="22.8758" height="6.40523" fill="white" transform="translate(82.2661 59.22) rotate(-30)"/>
</clipPath>
<clipPath id="clip9_308_24835">
<rect width="22.8758" height="6.40523" fill="white" transform="translate(106.04 45.4945) rotate(-30)"/>
</clipPath>
<clipPath id="clip10_308_24835">
<rect width="22.8758" height="6.40523" fill="white" transform="translate(10.9468 100.396) rotate(-30)"/>
</clipPath>
<clipPath id="clip11_308_24835">
<rect width="22.8758" height="6.40523" fill="white" transform="translate(34.7202 86.671) rotate(-30)"/>
</clipPath>
<clipPath id="clip12_308_24835">
<rect width="22.8758" height="6.40523" fill="white" transform="translate(86.0127 66.7974)"/>
</clipPath>
<clipPath id="clip13_308_24835">
<rect width="22.8758" height="6.40523" fill="white" transform="translate(113.464 66.7974)"/>
</clipPath>
<clipPath id="clip14_308_24835">
<rect width="22.8758" height="6.40523" fill="white" transform="translate(3.66016 66.7974)"/>
</clipPath>
<clipPath id="clip15_308_24835">
<rect width="22.8758" height="6.40523" fill="white" transform="translate(31.1113 66.7974)"/>
</clipPath>
<clipPath id="clip16_308_24835">
<rect width="22.8758" height="6.40523" fill="white" transform="translate(85.4692 75.233) rotate(30)"/>
</clipPath>
<clipPath id="clip17_308_24835">
<rect width="22.8758" height="6.40523" fill="white" transform="translate(109.243 88.9585) rotate(30)"/>
</clipPath>
<clipPath id="clip18_308_24835">
<rect width="22.8758" height="6.40523" fill="white" transform="translate(14.1494 34.0565) rotate(30)"/>
</clipPath>
<clipPath id="clip19_308_24835">
<rect width="22.8758" height="6.40523" fill="white" transform="translate(37.9229 47.782) rotate(30)"/>
</clipPath>
<clipPath id="clip20_308_24835">
<rect width="22.8758" height="6.40523" fill="white" transform="translate(80.7798 82.2664) rotate(60)"/>
</clipPath>
<clipPath id="clip21_308_24835">
<rect width="22.8758" height="6.40523" fill="white" transform="translate(94.5054 106.04) rotate(60)"/>
</clipPath>
<clipPath id="clip22_308_24835">
<rect width="22.8758" height="6.40523" fill="white" transform="translate(39.6035 10.9467) rotate(60)"/>
</clipPath>
<clipPath id="clip23_308_24835">
<rect width="22.8758" height="6.40523" fill="white" transform="translate(53.3291 34.7199) rotate(60)"/>
</clipPath>
</defs>
</svg>
