<svg width="140" height="140" viewBox="0 0 140 140" fill="none" xmlns="http://www.w3.org/2000/svg">
<path d="M100.572 14.6789L39.5944 14.6789L38.0471 12L102.12 12L100.572 14.6789Z" fill="#929296" fill-opacity="0.4"/>
<path d="M4.49898 67.4048L36.4999 12.0002L38.0472 14.6791L7.59356 67.4048H4.49898Z" fill="#929296" fill-opacity="0.4"/>
<path d="M7.69027 72.7626H4.59568L35.8098 126.805L37.3571 124.126L7.69027 72.7626Z" fill="#929296" fill-opacity="0.4"/>
<path d="M36.6668 128L38.2141 125.321H101.953L103.5 128H36.6668Z" fill="#929296" fill-opacity="0.4"/>
<path d="M102.726 123.982L104.274 126.661L135.404 72.7626H132.31L102.726 123.982Z" fill="#929296" fill-opacity="0.4"/>
<path d="M135.501 67.4048H132.406L102.036 14.8233L103.583 12.1444L135.501 67.4048Z" fill="#929296" fill-opacity="0.4"/>
<path d="M136.266 71.3395L137 70.0687L136.187 68.6606L133.092 68.6606L133.905 70.0687L133.171 71.3395H136.266Z" fill="#929296" fill-opacity="0.4"/>
<path d="M3.81331 68.6605H6.9079L6.09459 70.0687L6.82857 71.3394H3.73398L3 70.0687L3.81331 68.6605Z" fill="#929296" fill-opacity="0.4"/>
<path d="M8.37589 71.3394H14.7513L14.0165 70.067L14.8304 68.6605H8.45522L7.64191 70.0687L8.37589 71.3394Z" fill="#929296" fill-opacity="0.4"/>
<path d="M16.3758 68.6606L15.5625 70.0687L16.2965 71.3395H19.3911L18.6572 70.0686L19.4704 68.6606L16.3758 68.6606Z" fill="#929296" fill-opacity="0.4"/>
<path d="M27.3929 68.6605L21.0164 68.6606L20.2031 70.0687L20.9371 71.3394L119.062 71.3395L119.068 71.3394L119.802 70.0687L118.989 68.6605H112.612L113.426 70.067L112.691 71.3394H111.145L111.879 70.0687L111.066 68.6605H107.973L107.967 68.6606L108.78 70.0687L108.046 71.3394L106.506 71.3394L107.24 70.0687L106.426 68.6605H100.05L100.864 70.067L100.129 71.3394H98.5828L99.3168 70.0687L98.5035 68.6605H95.41L95.4046 68.6606L96.2179 70.0687L95.4839 71.3394L93.9431 71.3394L94.677 70.0687L93.8637 68.6605H46.1414L45.3281 70.0687L46.0621 71.3394H44.516L43.7822 70.0685L44.5954 68.6605H41.5008L40.6875 70.0687L41.4215 71.3394L39.8763 71.3394L39.1415 70.067L39.9554 68.6605L33.5802 68.6606L33.5789 68.6605L32.7656 70.0687L33.4996 71.3394H31.9535L31.2197 70.0686L32.0329 68.6606L32.0326 68.6605H28.9391L28.9383 68.6606L28.125 70.0687L28.859 71.3394L27.3138 71.3394L26.579 70.067L27.3929 68.6605Z" fill="#929296" fill-opacity="0.4"/>
<path d="M120.535 68.6605L120.53 68.6606L121.343 70.0687L120.609 71.3395H123.704L123.708 71.3394L124.442 70.0687L123.628 68.6605H120.535Z" fill="#929296" fill-opacity="0.4"/>
<path d="M131.624 71.3395L125.254 71.3394L125.989 70.067L125.175 68.6605L131.545 68.6606L132.358 70.0687L131.624 71.3395Z" fill="#929296" fill-opacity="0.4"/>
<path d="M45.8757 25.5539L94.291 25.5539L95.8383 22.875L44.3284 22.875L45.8757 25.5539Z" fill="#929296" fill-opacity="0.4"/>
<path d="M44.3285 25.5541L20.1561 67.4049H17.0615L42.7812 22.8752L44.3285 25.5541Z" fill="#929296" fill-opacity="0.4"/>
<path d="M17.1582 72.7627L42.091 115.93L43.6383 113.251L20.2528 72.7627H17.1582Z" fill="#929296" fill-opacity="0.4"/>
<path d="M95.6713 114.446L97.2186 117.125H42.9481L44.4954 114.446H95.6713Z" fill="#929296" fill-opacity="0.4"/>
<path d="M97.9923 115.786L122.842 72.7627H119.747L96.445 113.107L97.9923 115.786Z" fill="#929296" fill-opacity="0.4"/>
<path d="M97.3022 23.0194L122.939 67.4049H119.844L95.7549 25.6983L97.3022 23.0194Z" fill="#929296" fill-opacity="0.4"/>
<path d="M52.1569 36.4289L88.0097 36.4289L89.557 33.75L50.6096 33.75L52.1569 36.4289Z" fill="#929296" fill-opacity="0.4"/>
<path d="M49.0624 33.7502L29.624 67.4048H32.7186L41.6642 51.9169L50.6097 36.4291L49.0624 33.7502Z" fill="#929296" fill-opacity="0.4"/>
<path d="M89.4736 36.5733L91.0209 33.8944L110.376 67.4048H107.281L89.4736 36.5733Z" fill="#929296" fill-opacity="0.4"/>
<path d="M110.279 72.7626H107.185L90.1638 102.232L91.7111 104.911L110.279 72.7626Z" fill="#929296" fill-opacity="0.4"/>
<path d="M89.39 103.571L90.9373 106.25H49.2293L50.7766 103.571H89.39Z" fill="#929296" fill-opacity="0.4"/>
<path d="M48.3723 105.055L49.9196 102.376L32.8153 72.7626H29.7207L48.3723 105.055Z" fill="#929296" fill-opacity="0.4"/>
<path d="M58.4382 47.3039H81.7284L83.2757 44.625L56.8909 44.625L58.4382 47.3039Z" fill="#929296" fill-opacity="0.4"/>
<path d="M45.2811 67.4048L56.8909 47.3041L55.3437 44.6252L42.1865 67.4048H45.2811Z" fill="#929296" fill-opacity="0.4"/>
<path d="M94.7189 67.4048L83.1923 47.4483L84.7396 44.7694L97.8136 67.4048H94.7189Z" fill="#929296" fill-opacity="0.4"/>
<path d="M83.8825 91.3568L94.6223 72.7626H97.7169L85.4298 94.0357L83.8825 91.3568Z" fill="#929296" fill-opacity="0.4"/>
<path d="M83.1088 92.6961H57.0578L55.5105 95.375H84.656L83.1088 92.6961Z" fill="#929296" fill-opacity="0.4"/>
<path d="M45.3778 72.7626L56.2008 91.501L54.6535 94.1799L42.2832 72.7626H45.3778Z" fill="#929296" fill-opacity="0.4"/>
</svg>
